<svg xmlns="http://www.w3.org/2000/svg" width="520" height="240" viewBox="0 0 520 240" role="img" aria-labelledby="title desc" shape-rendering="crispEdges">
  <title id="title">Banked coals</title>
  <desc id="desc">An iron dish of banked embers, still glowing, with sparks lifting off.</desc>
  <defs>
    <linearGradient id="duskSky" x1="0" y1="0" x2="0" y2="1">
      <stop offset="0" stop-color="#0F1013"/>
      <stop offset=".42" stop-color="#1A1C22"/>
      <stop offset="1" stop-color="#20272A"/>
    </linearGradient>
    <linearGradient id="paperSky" x1="0" y1="0" x2="0" y2="1">
      <stop offset="0" stop-color="#1E2026"/>
      <stop offset="1" stop-color="#141519"/>
    </linearGradient>
    <linearGradient id="hillA" x1="0" y1="0" x2="0" y2="1">
      <stop offset="0" stop-color="#232B2E"/>
      <stop offset="1" stop-color="#191F22"/>
    </linearGradient>
    <linearGradient id="hillB" x1="0" y1="0" x2="0" y2="1">
      <stop offset="0" stop-color="#26332F"/>
      <stop offset="1" stop-color="#1A2421"/>
    </linearGradient>
    <linearGradient id="wood" x1="0" y1="0" x2="0" y2="1">
      <stop offset="0" stop-color="#2A2D35"/>
      <stop offset="1" stop-color="#1A1C22"/>
    </linearGradient>
    <linearGradient id="brass" x1="0" y1="0" x2="1" y2="0">
      <stop offset="0" stop-color="#8A6E1F"/>
      <stop offset=".55" stop-color="#C9A227"/>
      <stop offset="1" stop-color="#E0B94A"/>
    </linearGradient>
    <radialGradient id="lamp" cx="50%" cy="40%" r="50%">
      <stop offset="0" stop-color="#F2C14E" stop-opacity=".85"/>
      <stop offset=".45" stop-color="#E4572E" stop-opacity=".22"/>
      <stop offset="1" stop-color="#E4572E" stop-opacity="0"/>
    </radialGradient>
    <radialGradient id="hearth" cx="50%" cy="60%" r="50%">
      <stop offset="0" stop-color="#FFE3A3" stop-opacity=".6"/>
      <stop offset=".5" stop-color="#E4572E" stop-opacity=".22"/>
      <stop offset="1" stop-color="#E4572E" stop-opacity="0"/>
    </radialGradient>
    <filter id="softPaper" x="-4%" y="-4%" width="108%" height="112%">
      <feDropShadow dx="0" dy="2" stdDeviation="3" flood-color="#000000" flood-opacity=".5"/>
    </filter>
    
  </defs>
  <style>

.coal-halo{animation:coalHalo 3.2s ease-in-out infinite}
@keyframes coalHalo{0%,100%{opacity:.5}50%{opacity:.95}}
.coal-bit-0{animation:coalBit0 2.2s ease-in-out infinite;animation-delay:0.0s}@keyframes coalBit0{0%,100%{opacity:.55}50%{opacity:1}}.coal-bit-1{animation:coalBit1 2.45s ease-in-out infinite;animation-delay:0.2s}@keyframes coalBit1{0%,100%{opacity:.55}50%{opacity:1}}.coal-bit-2{animation:coalBit2 2.7s ease-in-out infinite;animation-delay:0.4s}@keyframes coalBit2{0%,100%{opacity:.55}50%{opacity:1}}.coal-bit-3{animation:coalBit3 2.95s ease-in-out infinite;animation-delay:0.6000000000000001s}@keyframes coalBit3{0%,100%{opacity:.55}50%{opacity:1}}.coal-bit-4{animation:coalBit4 3.2s ease-in-out infinite;animation-delay:0.8s}@keyframes coalBit4{0%,100%{opacity:.55}50%{opacity:1}}.coal-bit-5{animation:coalBit5 3.45s ease-in-out infinite;animation-delay:1.0s}@keyframes coalBit5{0%,100%{opacity:.55}50%{opacity:1}}
.coal-spark-0{opacity:.25;animation:coal_spark_0 2.40s ease-in-out infinite;animation-delay:0.00s}@keyframes coal_spark_0{0%,100%{opacity:.2;transform:translate(0,0)}50%{opacity:1;transform:translate(0,-9px)}}
.coal-spark-1{opacity:.25;animation:coal_spark_1 2.68s ease-in-out infinite;animation-delay:0.32s}@keyframes coal_spark_1{0%,100%{opacity:.2;transform:translate(0,0)}50%{opacity:1;transform:translate(0,-9px)}}
.coal-spark-2{opacity:.25;animation:coal_spark_2 2.96s ease-in-out infinite;animation-delay:0.64s}@keyframes coal_spark_2{0%,100%{opacity:.2;transform:translate(0,0)}50%{opacity:1;transform:translate(0,-9px)}}
.coal-spark-3{opacity:.25;animation:coal_spark_3 3.24s ease-in-out infinite;animation-delay:0.96s}@keyframes coal_spark_3{0%,100%{opacity:.2;transform:translate(0,0)}50%{opacity:1;transform:translate(0,-9px)}}

  </style>
  <rect width="520" height="240" fill="#17181C"/><rect x="8" y="8" width="504" height="224" fill="none" stroke="#8A6E1F" stroke-width="1" opacity=".55"/>
  <path d="M208.4 40 208.5 39.9H208.6Q209.1 39.9 209.4 39.7Q209.8 39.5 209.9 38.9L211.4 31.7Q211.5 31.5 211.5 31.4Q211.5 31 211.2 30.9Q210.9 30.8 210.5 30.8H210.4L210.4 30.7H213.8Q215.3 30.7 216 31.2Q216.8 31.7 216.8 32.7Q216.8 33.5 216.4 34Q216 34.5 215.3 34.8Q214.6 35.1 213.8 35.1V35.1Q216.3 35.3 216.3 37.1Q216.3 38.5 215.3 39.2Q214.4 40 212.5 40ZM213 35.1Q213.9 35.1 214.4 34.7Q214.9 34.4 215.2 33.8Q215.4 33.3 215.4 32.6Q215.4 31.7 215 31.3Q214.5 30.8 213.7 30.8H212.9L212 35.1ZM212 39.9Q213.1 39.9 213.7 39.5Q214.3 39.1 214.6 38.5Q214.9 37.8 214.9 37Q214.9 36.2 214.4 35.7Q214 35.2 213 35.2H212L211 39.9ZM219.4 40.1Q218.8 40.1 218.4 39.8Q218 39.5 217.8 39Q217.7 38.4 217.7 37.8Q217.7 37.1 217.8 36.5Q218 35.8 218.3 35.2Q218.6 34.5 219.1 34Q219.6 33.5 220.2 33.2Q220.8 32.9 221.5 32.9Q222.1 32.9 222.4 33.1Q222.7 33.2 223 33.4L223.6 33H224.1L223.2 37.2Q223.1 37.3 223.1 37.6Q223 37.9 223 38.2Q223 38.5 223 38.6Q223 39.7 223.5 39.7Q223.7 39.7 224 39.6Q224.2 39.5 224.5 39.2L224.6 39.4Q224.4 39.5 224.1 39.7Q223.8 39.9 223.4 40Q223.1 40.1 222.7 40.1Q222.3 40.1 222 39.8Q221.7 39.6 221.7 39.1Q221.7 38.8 221.8 38.6Q221.8 38.4 221.8 38H221.8Q221.4 39 220.7 39.6Q220.1 40.1 219.4 40.1ZM219.9 39.8Q220.3 39.8 220.6 39.5Q220.9 39.3 221.2 38.9Q221.5 38.5 221.7 38Q221.8 37.6 221.9 37.3L222.7 33.5Q222.5 33.3 222.3 33.2Q222 33 221.7 33Q221.2 33 220.8 33.4Q220.3 33.7 220 34.2Q219.7 34.7 219.4 35.4Q219.2 36 219.1 36.7Q219 37.3 219 37.8Q219 38.9 219.3 39.3Q219.5 39.8 219.9 39.8ZM231.1 40.1Q230.5 40.1 230.2 39.8Q229.9 39.4 229.9 38.8Q229.9 38.2 230.1 37.1L230.3 36.1Q230.4 35.8 230.5 35.3Q230.6 34.8 230.6 34.4Q230.6 34.2 230.6 34Q230.5 33.7 230.3 33.5Q230.2 33.3 229.8 33.3Q229.5 33.3 229.1 33.6Q228.8 33.8 228.5 34.1Q228.2 34.5 228.1 34.8Q227.9 35.1 227.9 35.3L226.9 40H225.6L226.8 34.4Q226.9 34.2 226.9 34Q226.9 33.8 226.9 33.8Q226.9 33.4 226.6 33.3Q226.4 33.2 226 33.2H225.9L225.9 33H228.3L228 34.7H228Q228.5 33.8 229.1 33.4Q229.7 32.9 230.5 32.9Q231.2 32.9 231.5 33.4Q231.9 33.8 231.9 34.4Q231.9 34.7 231.8 35.1Q231.7 35.5 231.6 35.8L231.3 37.3Q231.2 37.7 231.2 38.1Q231.1 38.4 231.1 38.8Q231.1 39.6 231.7 39.6Q232.1 39.6 232.6 39.3L232.6 39.4Q232.3 39.6 231.9 39.9Q231.6 40.1 231.1 40.1ZM239.8 40.1Q239.1 40.1 238.6 40Q238.2 39.9 237.9 39.6Q237.7 39.3 237.4 38.8L236.3 36.4L235.4 37.2L234.8 40H233.6L235.4 31.6Q235.5 31 235.5 30.9Q235.5 30.5 235.3 30.4Q235 30.2 234.6 30.2H234.5L234.5 30.1H236.9L236.4 32.5Q236.4 32.8 236.3 33.3Q236.2 33.7 236.1 34.3Q235.9 34.8 235.8 35.3Q235.7 35.9 235.6 36.3Q235.5 36.7 235.5 37L238.1 34.7Q238.7 34.2 238.9 34Q239.1 33.7 239.1 33.5Q239.1 33.4 238.9 33.3Q238.6 33.2 238 33.2L238 33H240.9L240.8 33.2Q240.3 33.2 239.8 33.6Q239.2 33.9 238.5 34.5L237.2 35.7L238.6 38.5Q238.9 38.9 239 39.3Q239.2 39.6 239.4 39.8Q239.6 40 239.9 40L239.9 40.1ZM243.6 40.1Q242.9 40.1 242.4 39.8Q241.8 39.5 241.4 38.9Q241.1 38.3 241.1 37.4Q241.1 36.7 241.3 35.9Q241.6 35.1 242.1 34.4Q242.6 33.8 243.3 33.3Q244 32.9 245 32.9Q245.8 32.9 246.2 33.3Q246.7 33.7 246.7 34.4Q246.7 35 246.2 35.6Q245.7 36.1 244.9 36.4Q244 36.8 243 36.8H242.5Q242.5 37.2 242.5 37.5Q242.5 38.7 242.8 39.4Q243.1 40 243.8 40Q244.5 40 244.9 39.5Q245.4 39.1 245.6 38.4Q245.9 38.5 245.9 38.8Q245.9 39 245.6 39.3Q245.4 39.7 244.9 39.9Q244.4 40.1 243.6 40.1ZM242.9 36.6Q244.1 36.6 244.7 36Q245.4 35.4 245.4 34.3Q245.4 33 244.7 33Q244.3 33 243.9 33.4Q243.6 33.7 243.3 34.2Q243 34.7 242.9 35.4Q242.7 36 242.5 36.6ZM249.2 40.1Q248.6 40.1 248.2 39.8Q247.9 39.5 247.7 39Q247.5 38.4 247.5 37.8Q247.5 37.1 247.7 36.5Q247.8 35.8 248.2 35.2Q248.5 34.5 249 34Q249.4 33.5 250 33.2Q250.7 32.9 251.4 32.9Q251.8 32.9 252.1 33Q252.4 33.1 252.6 33.2Q252.7 33 252.7 32.9Q252.7 32.7 252.8 32.5L253 31.4Q253.1 31.3 253.1 31.1Q253.1 30.9 253.1 30.8Q253.1 30.5 252.9 30.4Q252.7 30.2 252.3 30.2H252.1L252.1 30.1H254.5L253 37.2Q253 37.3 252.9 37.6Q252.9 37.9 252.9 38.2Q252.8 38.5 252.8 38.6Q252.8 39.7 253.4 39.7Q253.6 39.7 253.9 39.6Q254.1 39.4 254.4 39.2L254.4 39.4Q254.2 39.5 253.9 39.7Q253.6 39.9 253.3 40Q252.9 40.1 252.6 40.1Q252.1 40.1 251.9 39.8Q251.6 39.6 251.6 39.1Q251.6 38.9 251.6 38.6Q251.6 38.4 251.7 38H251.7Q251.2 39 250.6 39.6Q250 40.1 249.2 40.1ZM249.8 39.8Q250.1 39.8 250.4 39.6Q250.7 39.3 251 39Q251.2 38.6 251.4 38.2Q251.6 37.8 251.7 37.4L252.6 33.4Q252.4 33.3 252.1 33.2Q251.9 33.1 251.5 33.1Q251 33.1 250.6 33.4Q250.1 33.7 249.8 34.2Q249.5 34.8 249.3 35.4Q249.1 36 249 36.7Q248.8 37.3 248.8 37.8Q248.8 38.9 249.1 39.3Q249.4 39.8 249.8 39.8Z" fill="#E9E6DF" shape-rendering="geometricPrecision" role="img" aria-label="Banked"/><path d="M264.1 40.2Q262.6 40.2 261.5 39.7Q260.3 39.1 259.7 37.9Q259.1 36.7 259.1 34.7Q259.1 32.5 259.7 31.3Q260.4 30.1 261.5 29.5Q262.6 29 264.1 29Q265.9 29 266.9 29.6Q267.9 30.2 267.9 31.2Q267.9 31.6 267.7 31.9Q267.5 32.3 267 32.6Q266.4 32.8 265.4 32.8Q265.4 31.4 265.2 30.7Q265.1 29.9 264.8 29.5Q264.5 29.2 264 29.2Q263.3 29.2 262.9 29.7Q262.5 30.2 262.3 31.4Q262.2 32.6 262.2 34.7Q262.2 37.5 262.7 38.8Q263.3 40 264.6 40Q265.7 40 266.4 39.3Q267.1 38.6 267.3 37Q267.7 37.1 267.8 37.4Q268 37.6 268 38Q268 38.5 267.6 39Q267.2 39.5 266.3 39.9Q265.4 40.2 264.1 40.2ZM275.2 40.2Q272.8 40.2 271.4 38.8Q270 37.4 270 34.6Q270 31.8 271.3 30.4Q272.7 29 275.2 29Q277.6 29 279 30.4Q280.4 31.8 280.4 34.6Q280.4 37.4 279.1 38.8Q277.7 40.2 275.2 40.2ZM275.2 40Q276 40 276.5 39.5Q276.9 39 277.1 37.8Q277.3 36.6 277.3 34.6Q277.3 32.6 277.1 31.4Q276.9 30.3 276.4 29.7Q276 29.2 275.2 29.2Q274.4 29.2 274 29.7Q273.5 30.3 273.3 31.4Q273.1 32.6 273.1 34.6Q273.1 36.6 273.3 37.8Q273.5 39 274 39.5Q274.4 40 275.2 40ZM285.8 40.2Q284.3 40.2 283.5 39.4Q282.6 38.5 282.6 37.1Q282.6 35.5 283.8 34.9Q284.9 34.2 287.1 34.1L288.8 34V31.5Q288.8 30.2 288.5 29.7Q288.2 29.2 287.5 29.2Q286.7 29.2 286.5 29.9Q286.2 30.6 286.2 32.4Q284.8 32.4 284.2 32.1Q283.5 31.8 283.5 31Q283.5 30.3 284 29.9Q284.6 29.4 285.5 29.2Q286.5 29 287.6 29Q289.7 29 290.8 29.8Q291.8 30.5 291.8 32.4V38.4Q291.8 39.2 292.1 39.5Q292.3 39.8 293 39.8H293.1V40H288.8V38H288.8Q288.4 39.3 287.6 39.7Q286.8 40.2 285.8 40.2ZM286.9 39.6Q287.4 39.6 287.9 39.2Q288.3 38.8 288.5 38.1Q288.8 37.4 288.8 36.6V34.2L287.9 34.3Q286.7 34.3 286.2 35Q285.7 35.6 285.7 37Q285.7 38.5 286 39.1Q286.3 39.6 286.9 39.6ZM294.5 40V39.8H294.7Q295 39.8 295.3 39.7Q295.7 39.6 295.9 39.3Q296.1 39.1 296.1 38.5V26.2Q296.1 25.7 295.9 25.4Q295.6 25.2 295.3 25.1Q295 25 294.7 25H294.5V24.8H299.2V38.5Q299.2 39.1 299.4 39.3Q299.6 39.6 300 39.7Q300.3 39.8 300.6 39.8H300.8V40ZM306 40.2Q304 40.2 303.1 39.5Q302.2 38.9 302.2 37.9Q302.2 37.2 302.5 36.9Q302.8 36.6 303.2 36.5Q303.7 36.3 304 36.3Q304 38.4 304.5 39.2Q305.1 40 306.2 40Q307.2 40 307.8 39.5Q308.4 39 308.4 38Q308.4 37.3 308.1 37Q307.8 36.6 307.2 36.3Q306.6 36 305.7 35.7Q304.8 35.3 304 34.9Q303.3 34.5 302.8 33.9Q302.4 33.3 302.4 32.2Q302.4 30.6 303.5 29.8Q304.7 29 306.7 29Q308.6 29 309.4 29.6Q310.2 30.2 310.2 31Q310.2 31.6 309.7 31.9Q309.2 32.3 308.1 32.3Q308.1 30.6 307.7 29.9Q307.2 29.2 306.4 29.2Q305.9 29.2 305.5 29.4Q305.1 29.6 304.8 30Q304.5 30.3 304.5 31.1Q304.5 31.7 304.8 32.1Q305.1 32.5 305.8 32.8Q306.4 33.1 307.5 33.5Q308.4 33.8 309.1 34.2Q309.8 34.6 310.1 35.2Q310.5 35.8 310.5 36.8Q310.5 38.4 309.4 39.3Q308.2 40.2 306 40.2Z" fill="#E9E6DF" shape-rendering="geometricPrecision" role="img" aria-label="coals"/>
  <g opacity=".8">
  <path d="M202 54 H252" stroke="#C9A227" stroke-width="1"/>
  <path d="M268 54 H318" stroke="#C9A227" stroke-width="1"/>
  <path d="M260 50 L264 54 L260 58 L256 54 Z" fill="#C9A227"/>
</g>
  <ellipse class="coal-halo" cx="260" cy="118" rx="150" ry="56" fill="url(#hearth)"/>
  <ellipse cx="260" cy="148" rx="132" ry="40" fill="#2A2D35"/>
  <ellipse cx="260" cy="144" rx="118" ry="32" fill="#1A1C22"/>
  <path d="M142 144 A118 32 0 0 0 378 144" fill="none" stroke="#8A6E1F" stroke-width="2" opacity=".75"/>
  <rect x="148" y="168" width="8" height="22" fill="#2A2D35"/>
  <rect x="364" y="168" width="8" height="22" fill="#2A2D35"/>
  <ellipse class="coal-bit-0" cx="200" cy="128" rx="26" ry="12" fill="#A33418"/>
<ellipse class="coal-bit-1" cx="248" cy="122" rx="30" ry="13" fill="#E4572E"/>
<ellipse class="coal-bit-2" cx="300" cy="130" rx="24" ry="11" fill="#A33418"/>
<ellipse class="coal-bit-3" cx="224" cy="140" rx="22" ry="9" fill="#F2A03C"/>
<ellipse class="coal-bit-4" cx="280" cy="142" rx="20" ry="9" fill="#E4572E"/>
<ellipse class="coal-bit-5" cx="262" cy="118" rx="14" ry="8" fill="#F2C14E"/>
<circle class="coal-spark-0" cx="214" cy="92" r="1.7" fill="#F2C14E"/>
<circle class="coal-spark-1" cx="262" cy="78" r="1.7" fill="#F2C14E"/>
<circle class="coal-spark-2" cx="312" cy="94" r="1.7" fill="#F2C14E"/>
<circle class="coal-spark-3" cx="238" cy="86" r="1.7" fill="#F2C14E"/>
  <path d="M212.3 212 212.3 211.9H212.5Q212.8 211.9 213.1 211.8Q213.5 211.8 213.7 211.6Q213.9 211.3 214 210.9L215.5 203.7Q215.6 203.5 215.6 203.4Q215.6 203 215.2 202.9Q214.9 202.8 214.4 202.8H214.2L214.2 202.7H216.8L220.1 210.2L221.4 203.7Q221.5 203.6 221.5 203.5Q221.5 203.4 221.5 203.4Q221.5 203 221.1 202.9Q220.7 202.8 220.2 202.8H220L220 202.7H223.3L223.3 202.8H223.1Q222.7 202.8 222.4 202.9Q222.1 203 221.9 203.2Q221.7 203.4 221.6 203.8L219.8 212H219.4L215.7 203.5L214.1 211Q214 211.2 214 211.3Q214 211.7 214.4 211.8Q214.8 211.9 215.4 211.9H215.5L215.5 212ZM225.5 212.1Q224.8 212.1 224.2 211.8Q223.6 211.5 223.3 210.9Q222.9 210.3 222.9 209.4Q222.9 208.7 223.2 207.9Q223.4 207.1 223.9 206.4Q224.4 205.8 225.1 205.3Q225.9 204.9 226.8 204.9Q227.6 204.9 228.1 205.3Q228.5 205.7 228.5 206.4Q228.5 207 228 207.6Q227.6 208.1 226.7 208.4Q225.9 208.8 224.8 208.8H224.3Q224.3 209.2 224.3 209.5Q224.3 210.7 224.6 211.4Q224.9 212 225.6 212Q226.3 212 226.8 211.5Q227.2 211.1 227.4 210.4Q227.7 210.5 227.7 210.8Q227.7 211 227.5 211.3Q227.2 211.7 226.7 211.9Q226.2 212.1 225.5 212.1ZM224.7 208.6Q225.9 208.6 226.5 208Q227.2 207.4 227.2 206.3Q227.2 205 226.5 205Q226.1 205 225.8 205.4Q225.4 205.7 225.2 206.2Q224.9 206.7 224.7 207.4Q224.5 208 224.4 208.6ZM230.1 205.9Q230 205.4 229.8 205.3Q229.6 205.2 229.3 205.2H229.2L229.2 205H231.2L231.8 208.9Q231.9 209.7 232 210.4Q232.1 211.2 232.1 211.6H232.1Q232.8 210.9 233.5 210.1Q234.1 209.2 234.4 208.4Q234.8 207.6 234.8 207Q234.8 206.4 234.4 206.2Q234.1 206 233.5 206Q233.5 205.5 233.8 205.2Q234 205 234.4 205Q234.8 205 235 205.2Q235.2 205.5 235.2 206.2Q235.2 206.8 235 207.4Q234.8 208.1 234.4 208.8Q234 209.4 233.6 210Q233.2 210.6 232.7 211.1Q232.3 211.6 231.9 212L231 212.1ZM238.8 212.1Q238.1 212.1 237.5 211.8Q237 211.5 236.6 210.9Q236.3 210.3 236.3 209.4Q236.3 208.7 236.5 207.9Q236.8 207.1 237.3 206.4Q237.8 205.8 238.5 205.3Q239.2 204.9 240.2 204.9Q241 204.9 241.4 205.3Q241.9 205.7 241.9 206.4Q241.9 207 241.4 207.6Q240.9 208.1 240.1 208.4Q239.2 208.8 238.2 208.8H237.7Q237.6 209.2 237.6 209.5Q237.6 210.7 238 211.4Q238.3 212 238.9 212Q239.7 212 240.1 211.5Q240.6 211.1 240.8 210.4Q241.1 210.5 241.1 210.8Q241.1 211 240.8 211.3Q240.6 211.7 240.1 211.9Q239.6 212.1 238.8 212.1ZM238.1 208.6Q239.2 208.6 239.9 208Q240.5 207.4 240.5 206.3Q240.5 205 239.8 205Q239.5 205 239.1 205.4Q238.8 205.7 238.5 206.2Q238.2 206.7 238 207.4Q237.8 208 237.7 208.6ZM244.2 206.4Q244.2 206.2 244.2 206Q244.3 205.8 244.3 205.8Q244.3 205.4 243.9 205.3Q243.6 205.2 243.2 205.2H243.1L243.1 205H245.5L245.2 206.9H245.3Q245.5 206.4 245.8 205.9Q246.1 205.5 246.5 205.2Q246.9 204.9 247.5 204.9Q248.1 204.9 248.3 205.2Q248.6 205.4 248.6 205.8Q248.6 206.3 248.3 206.5Q248 206.8 247.5 206.8Q247.5 206.7 247.5 206.6Q247.5 206.5 247.5 206.4Q247.5 205.9 247.4 205.6Q247.2 205.3 246.8 205.3Q246.6 205.3 246.3 205.6Q246 205.8 245.8 206.2Q245.5 206.6 245.4 206.9Q245.2 207.3 245.1 207.6L244.2 212H243ZM251.1 215.1Q250.9 215.1 250.7 215.1Q250.5 215.1 250.4 215L250.4 214.9Q250.5 214.9 250.7 214.9Q250.8 215 251 215Q251.4 215 251.7 214.7Q252.1 214.4 252.3 213.8Q252.5 213.1 252.7 212.1L254.2 205.2H253L253 205.1L254.2 205L254.4 204.3Q254.6 203.2 255.2 202.6Q255.8 202 256.8 202Q257.7 202 258.1 202.3Q258.5 202.5 258.5 203Q258.5 203.4 258.2 203.6Q258 203.8 257.4 203.8Q257.4 203.1 257.3 202.6Q257.2 202.1 256.8 202.1Q256.3 202.1 256.1 202.6Q255.8 203.1 255.6 204.2L255.4 205H256.9L256.9 205.2H255.4L253.9 212.1Q253.7 213.3 253.3 213.9Q252.9 214.6 252.4 214.9Q251.8 215.1 251.1 215.1ZM262.6 212.1Q262.1 212.1 261.8 211.8Q261.5 211.4 261.5 210.9Q261.5 210.8 261.5 210.5Q261.5 210.3 261.5 210.1H261.5Q261.2 210.7 260.8 211.1Q260.4 211.6 260 211.9Q259.5 212.1 258.9 212.1Q258.2 212.1 257.9 211.7Q257.5 211.2 257.5 210.7Q257.5 210.3 257.6 210Q257.7 209.6 257.8 209.2L258.4 206.6Q258.4 206.4 258.5 206.1Q258.5 205.9 258.5 205.8Q258.5 205.4 258.2 205.3Q258 205.2 257.6 205.2H257.5L257.5 205H259.9L259.1 208.9Q259 209.2 259 209.5Q258.9 209.8 258.9 210.1Q258.8 210.3 258.8 210.5Q258.8 211.1 259 211.4Q259.1 211.7 259.6 211.7Q259.9 211.7 260.2 211.5Q260.6 211.3 260.9 210.9Q261.2 210.5 261.4 210.1Q261.6 209.7 261.6 209.3L262.6 205H263.8L262.9 209.2Q262.9 209.3 262.9 209.6Q262.8 209.9 262.8 210.2Q262.7 210.5 262.7 210.6Q262.7 211.7 263.3 211.7Q263.5 211.7 263.7 211.6Q263.9 211.5 264.2 211.3L264.2 211.4Q263.9 211.6 263.5 211.9Q263.1 212.1 262.6 212.1ZM266.7 212.1Q266.2 212.1 265.9 211.8Q265.7 211.4 265.7 210.9Q265.7 210.6 265.7 210.2Q265.8 209.9 265.8 209.5Q265.9 209.1 265.9 208.9L267.1 203.4Q267.1 203.3 267.2 203.1Q267.2 202.9 267.2 202.9Q267.2 202.5 266.9 202.4Q266.6 202.2 266.3 202.2H266.1L266.1 202.1H268.6L267.1 209.2Q267.1 209.3 267 209.6Q267 209.9 266.9 210.2Q266.9 210.5 266.9 210.6Q266.9 211.1 267 211.4Q267.1 211.6 267.5 211.6Q267.7 211.6 267.9 211.5Q268.2 211.4 268.4 211.2L268.5 211.3Q268.2 211.6 267.7 211.9Q267.2 212.1 266.7 212.1ZM271 212.1Q270.5 212.1 270.2 211.8Q269.9 211.4 269.9 210.9Q269.9 210.6 270 210.2Q270 209.9 270.1 209.5Q270.1 209.1 270.2 208.9L271.3 203.4Q271.4 203.3 271.4 203.1Q271.4 202.9 271.4 202.9Q271.4 202.5 271.2 202.4Q270.9 202.2 270.5 202.2H270.4L270.4 202.1H272.8L271.3 209.2Q271.3 209.3 271.3 209.6Q271.2 209.9 271.2 210.2Q271.1 210.5 271.1 210.6Q271.1 211.1 271.3 211.4Q271.4 211.6 271.7 211.6Q271.9 211.6 272.2 211.5Q272.4 211.4 272.7 211.2L272.7 211.3Q272.4 211.6 272 211.9Q271.5 212.1 271 212.1ZM272.3 215.1Q271.7 215.1 271.1 214.9L271.2 214.8Q271.3 214.8 271.6 214.9Q271.8 214.9 272.3 214.9Q273.5 214.9 274.5 214.3Q275.5 213.8 276.2 212.8L274.2 205.9Q274.1 205.5 274 205.3Q273.8 205.2 273.4 205.2H273.3L273.3 205H275.3L276.3 208.5Q276.3 208.8 276.4 209.2Q276.5 209.7 276.7 210.2Q276.8 210.6 276.9 211Q277 211.4 277 211.6H277Q277.4 211 277.8 210.3Q278.2 209.6 278.6 209Q278.9 208.3 279.1 207.7Q279.3 207.2 279.3 206.8Q279.3 206.4 279 206.1Q278.7 205.9 278 205.9Q278 205.4 278.2 205.2Q278.5 204.9 278.8 204.9Q279.2 204.9 279.5 205.2Q279.7 205.5 279.7 206Q279.7 207 279.1 208.3Q278.4 209.7 277.4 211.3Q276.8 212.2 276.2 213Q275.7 213.7 275.1 214.2Q274.6 214.7 273.9 214.9Q273.3 215.1 272.3 215.1ZM286.7 212.1Q285.6 212.1 284.9 211.5Q284.2 210.8 284.2 209.4Q284.2 208.7 284.4 207.9Q284.7 207.1 285.2 206.4Q285.6 205.8 286.4 205.3Q287.1 204.9 288.1 204.9Q288.8 204.9 289.3 205.2Q289.9 205.4 290.2 206Q290.6 206.6 290.6 207.6Q290.6 208.2 290.4 208.8Q290.3 209.4 290 210Q289.7 210.6 289.2 211.1Q288.8 211.5 288.1 211.8Q287.5 212.1 286.7 212.1ZM286.7 212Q287.3 212 287.7 211.7Q288.1 211.4 288.4 210.9Q288.7 210.4 288.8 209.8Q289 209.2 289.1 208.5Q289.2 207.9 289.2 207.4Q289.2 206.1 288.9 205.6Q288.6 205 288 205Q287.5 205 287.1 205.3Q286.7 205.6 286.4 206.2Q286.1 206.7 285.9 207.3Q285.7 207.9 285.6 208.5Q285.6 209.1 285.6 209.7Q285.6 210.9 285.9 211.5Q286.2 212 286.7 212ZM297.3 212.1Q296.7 212.1 296.4 211.8Q296.2 211.4 296.2 210.9Q296.2 210.8 296.2 210.5Q296.2 210.3 296.2 210.1H296.2Q295.8 210.7 295.5 211.1Q295.1 211.6 294.7 211.9Q294.2 212.1 293.6 212.1Q292.8 212.1 292.5 211.7Q292.2 211.2 292.2 210.7Q292.2 210.3 292.3 210Q292.4 209.6 292.5 209.2L293.1 206.6Q293.1 206.4 293.1 206.1Q293.2 205.9 293.2 205.8Q293.2 205.4 292.9 205.3Q292.6 205.2 292.3 205.2H292.2L292.2 205H294.6L293.7 208.9Q293.7 209.2 293.6 209.5Q293.6 209.8 293.5 210.1Q293.5 210.3 293.5 210.5Q293.5 211.1 293.6 211.4Q293.8 211.7 294.2 211.7Q294.6 211.7 294.9 211.5Q295.2 211.3 295.5 210.9Q295.8 210.5 296 210.1Q296.2 209.7 296.3 209.3L297.2 205H298.5L297.6 209.2Q297.6 209.3 297.5 209.6Q297.5 209.9 297.4 210.2Q297.4 210.5 297.4 210.6Q297.4 211.7 298 211.7Q298.2 211.7 298.4 211.6Q298.6 211.5 298.8 211.3L298.9 211.4Q298.6 211.6 298.2 211.9Q297.7 212.1 297.3 212.1ZM301.8 212.1Q300.3 212.1 300.3 210.6Q300.3 210.4 300.4 210.1Q300.4 209.8 300.5 209.5L301.4 205.2H300.4L300.4 205Q301.2 205 301.6 204.9Q302 204.7 302.3 204.4Q302.6 204 302.9 203.4H303L302.6 205H304.2L304.2 205.2H302.6L301.7 209.5Q301.6 209.8 301.6 210.1Q301.5 210.4 301.5 210.6Q301.5 211.2 301.8 211.4Q302 211.7 302.4 211.7Q302.7 211.7 303 211.6Q303.2 211.5 303.5 211.4L303.5 211.5Q303.1 211.8 302.7 212Q302.3 212.1 301.8 212.1ZM305.3 212.1Q305.1 212.1 304.9 212Q304.7 211.8 304.7 211.5Q304.7 211 305 210.7Q305.2 210.3 305.6 210.3Q305.9 210.3 306.1 210.5Q306.2 210.6 306.2 210.9Q306.2 211.4 306 211.7Q305.8 212.1 305.3 212.1Z" fill="#9AA0AC" shape-rendering="geometricPrecision" role="img" aria-label="Never fully out."/>

</svg>
