<svg xmlns="http://www.w3.org/2000/svg" width="920" height="440" viewBox="0 0 920 440" role="img" aria-labelledby="title desc" shape-rendering="crispEdges">
  <title id="title">Tool rack</title>
  <desc id="desc">Equal-sized bone tags for languages and tools hanging from a brass rail, with a sitting dragon and an anvil on the bench.</desc>
  <defs>
    <linearGradient id="duskSky" x1="0" y1="0" x2="0" y2="1">
      <stop offset="0" stop-color="#0F1013"/>
      <stop offset=".42" stop-color="#1A1C22"/>
      <stop offset="1" stop-color="#20272A"/>
    </linearGradient>
    <linearGradient id="paperSky" x1="0" y1="0" x2="0" y2="1">
      <stop offset="0" stop-color="#1E2026"/>
      <stop offset="1" stop-color="#141519"/>
    </linearGradient>
    <linearGradient id="hillA" x1="0" y1="0" x2="0" y2="1">
      <stop offset="0" stop-color="#232B2E"/>
      <stop offset="1" stop-color="#191F22"/>
    </linearGradient>
    <linearGradient id="hillB" x1="0" y1="0" x2="0" y2="1">
      <stop offset="0" stop-color="#26332F"/>
      <stop offset="1" stop-color="#1A2421"/>
    </linearGradient>
    <linearGradient id="wood" x1="0" y1="0" x2="0" y2="1">
      <stop offset="0" stop-color="#2A2D35"/>
      <stop offset="1" stop-color="#1A1C22"/>
    </linearGradient>
    <linearGradient id="brass" x1="0" y1="0" x2="1" y2="0">
      <stop offset="0" stop-color="#8A6E1F"/>
      <stop offset=".55" stop-color="#C9A227"/>
      <stop offset="1" stop-color="#E0B94A"/>
    </linearGradient>
    <radialGradient id="lamp" cx="50%" cy="40%" r="50%">
      <stop offset="0" stop-color="#F2C14E" stop-opacity=".85"/>
      <stop offset=".45" stop-color="#E4572E" stop-opacity=".22"/>
      <stop offset="1" stop-color="#E4572E" stop-opacity="0"/>
    </radialGradient>
    <radialGradient id="hearth" cx="50%" cy="60%" r="50%">
      <stop offset="0" stop-color="#FFE3A3" stop-opacity=".6"/>
      <stop offset=".5" stop-color="#E4572E" stop-opacity=".22"/>
      <stop offset="1" stop-color="#E4572E" stop-opacity="0"/>
    </radialGradient>
    <filter id="softPaper" x="-4%" y="-4%" width="108%" height="112%">
      <feDropShadow dx="0" dy="2" stdDeviation="3" flood-color="#000000" flood-opacity=".5"/>
    </filter>
    
  </defs>
  <rect width="920" height="440" fill="#17181C"/>
  <rect x="20" y="18" width="880" height="404" fill="#1E2026"/>
  <rect x="20" y="18" width="880" height="404" fill="none" stroke="#8A6E1F" stroke-width="1" opacity=".7"/>
  <text x="460" y="62" text-anchor="middle" font-family="Georgia, 'Times New Roman', serif" font-size="20" fill="#E9E6DF" letter-spacing="8">THE TOOL RACK</text>
  <path d="M340 78 H580" stroke="#C9A227" stroke-width="1" opacity=".7"/>
  <text x="460" y="102" text-anchor="middle" font-family="Georgia, 'Times New Roman', serif" font-size="12" fill="#9AA0AC" letter-spacing="3">HUNG WHERE I CAN REACH THEM</text>
  <rect x="48" y="146" width="824" height="5" fill="url(#brass)"/>
  <rect x="44" y="140" width="10" height="17" fill="#8A6E1F"/>
  <rect x="866" y="140" width="10" height="17" fill="#8A6E1F"/>
  <g>
  <animateTransform attributeName="transform" type="rotate" values="0 110.0 150; 1.1 110.0 150; -1.1 110.0 150; 0 110.0 150" dur="6.0s" repeatCount="indefinite"/>
  <path d="M110.0 150 V186" stroke="#8A6E1F" stroke-width="2"/>
  <rect x="62" y="186" width="96" height="92" fill="#E9E6DF"/>
  <rect x="62" y="186" width="96" height="4" fill="#C9A227"/>
  <circle cx="110.0" cy="200" r="3" fill="#2A2D35"/>
  <rect x="75.5" y="226" width="6" height="3" fill="#111214"/>
<rect x="87.5" y="226" width="3" height="3" fill="#111214"/>
<rect x="93.5" y="226" width="3" height="3" fill="#111214"/>
<rect x="99.5" y="226" width="9" height="3" fill="#111214"/>
<rect x="111.5" y="226" width="3" height="3" fill="#111214"/>
<rect x="117.5" y="226" width="3" height="3" fill="#111214"/>
<rect x="126.5" y="226" width="3" height="3" fill="#111214"/>
<rect x="135.5" y="226" width="3" height="3" fill="#111214"/>
<rect x="141.5" y="226" width="3" height="3" fill="#111214"/>
<rect x="75.5" y="229" width="3" height="3" fill="#111214"/>
<rect x="81.5" y="229" width="3" height="3" fill="#111214"/>
<rect x="87.5" y="229" width="3" height="3" fill="#111214"/>
<rect x="93.5" y="229" width="3" height="3" fill="#111214"/>
<rect x="102.5" y="229" width="3" height="3" fill="#111214"/>
<rect x="111.5" y="229" width="3" height="3" fill="#111214"/>
<rect x="117.5" y="229" width="3" height="3" fill="#111214"/>
<rect x="123.5" y="229" width="3" height="3" fill="#111214"/>
<rect x="129.5" y="229" width="3" height="3" fill="#111214"/>
<rect x="135.5" y="229" width="6" height="3" fill="#111214"/>
<rect x="75.5" y="232" width="6" height="3" fill="#111214"/>
<rect x="90.5" y="232" width="3" height="3" fill="#111214"/>
<rect x="102.5" y="232" width="3" height="3" fill="#111214"/>
<rect x="111.5" y="232" width="9" height="3" fill="#111214"/>
<rect x="123.5" y="232" width="3" height="3" fill="#111214"/>
<rect x="129.5" y="232" width="3" height="3" fill="#111214"/>
<rect x="135.5" y="232" width="3" height="3" fill="#111214"/>
<rect x="141.5" y="232" width="3" height="3" fill="#111214"/>
<rect x="75.5" y="235" width="3" height="3" fill="#111214"/>
<rect x="90.5" y="235" width="3" height="3" fill="#111214"/>
<rect x="102.5" y="235" width="3" height="3" fill="#111214"/>
<rect x="111.5" y="235" width="3" height="3" fill="#111214"/>
<rect x="117.5" y="235" width="3" height="3" fill="#111214"/>
<rect x="123.5" y="235" width="3" height="3" fill="#111214"/>
<rect x="129.5" y="235" width="3" height="3" fill="#111214"/>
<rect x="135.5" y="235" width="3" height="3" fill="#111214"/>
<rect x="141.5" y="235" width="3" height="3" fill="#111214"/>
<rect x="75.5" y="238" width="3" height="3" fill="#111214"/>
<rect x="90.5" y="238" width="3" height="3" fill="#111214"/>
<rect x="102.5" y="238" width="3" height="3" fill="#111214"/>
<rect x="111.5" y="238" width="3" height="3" fill="#111214"/>
<rect x="117.5" y="238" width="3" height="3" fill="#111214"/>
<rect x="126.5" y="238" width="3" height="3" fill="#111214"/>
<rect x="135.5" y="238" width="3" height="3" fill="#111214"/>
<rect x="141.5" y="238" width="3" height="3" fill="#111214"/>
  <path d="M80 258 H140" stroke="#4E535D" stroke-width="1"/>
</g><g>
  <animateTransform attributeName="transform" type="rotate" values="0 227.0 150; 1.1 227.0 150; -1.1 227.0 150; 0 227.0 150" dur="6.4s" repeatCount="indefinite"/>
  <path d="M227.0 150 V186" stroke="#8A6E1F" stroke-width="2"/>
  <rect x="179" y="186" width="96" height="92" fill="#E9E6DF"/>
  <rect x="179" y="186" width="96" height="4" fill="#C9A227"/>
  <circle cx="227.0" cy="200" r="3" fill="#2A2D35"/>
  <rect x="216.5" y="226" width="9" height="3" fill="#111214"/>
<rect x="231.5" y="226" width="6" height="3" fill="#111214"/>
<rect x="219.5" y="229" width="3" height="3" fill="#111214"/>
<rect x="228.5" y="229" width="3" height="3" fill="#111214"/>
<rect x="219.5" y="232" width="3" height="3" fill="#111214"/>
<rect x="231.5" y="232" width="3" height="3" fill="#111214"/>
<rect x="219.5" y="235" width="3" height="3" fill="#111214"/>
<rect x="234.5" y="235" width="3" height="3" fill="#111214"/>
<rect x="219.5" y="238" width="3" height="3" fill="#111214"/>
<rect x="228.5" y="238" width="6" height="3" fill="#111214"/>
  <path d="M197 258 H257" stroke="#4E535D" stroke-width="1"/>
</g><g>
  <animateTransform attributeName="transform" type="rotate" values="0 344.0 150; 1.1 344.0 150; -1.1 344.0 150; 0 344.0 150" dur="6.8s" repeatCount="indefinite"/>
  <path d="M344.0 150 V186" stroke="#8A6E1F" stroke-width="2"/>
  <rect x="296" y="186" width="96" height="92" fill="#E9E6DF"/>
  <rect x="296" y="186" width="96" height="4" fill="#C9A227"/>
  <circle cx="344.0" cy="200" r="3" fill="#2A2D35"/>
  <rect x="315.5" y="226" width="6" height="3" fill="#111214"/>
<rect x="327.5" y="226" width="9" height="3" fill="#111214"/>
<rect x="342.5" y="226" width="3" height="3" fill="#111214"/>
<rect x="354.5" y="226" width="6" height="3" fill="#111214"/>
<rect x="363.5" y="226" width="9" height="3" fill="#111214"/>
<rect x="315.5" y="229" width="3" height="3" fill="#111214"/>
<rect x="321.5" y="229" width="3" height="3" fill="#111214"/>
<rect x="327.5" y="229" width="3" height="3" fill="#111214"/>
<rect x="339.5" y="229" width="3" height="3" fill="#111214"/>
<rect x="345.5" y="229" width="3" height="3" fill="#111214"/>
<rect x="351.5" y="229" width="3" height="3" fill="#111214"/>
<rect x="366.5" y="229" width="3" height="3" fill="#111214"/>
<rect x="315.5" y="232" width="6" height="3" fill="#111214"/>
<rect x="327.5" y="232" width="6" height="3" fill="#111214"/>
<rect x="339.5" y="232" width="9" height="3" fill="#111214"/>
<rect x="351.5" y="232" width="3" height="3" fill="#111214"/>
<rect x="366.5" y="232" width="3" height="3" fill="#111214"/>
<rect x="315.5" y="235" width="3" height="3" fill="#111214"/>
<rect x="321.5" y="235" width="3" height="3" fill="#111214"/>
<rect x="327.5" y="235" width="3" height="3" fill="#111214"/>
<rect x="339.5" y="235" width="3" height="3" fill="#111214"/>
<rect x="345.5" y="235" width="3" height="3" fill="#111214"/>
<rect x="351.5" y="235" width="3" height="3" fill="#111214"/>
<rect x="366.5" y="235" width="3" height="3" fill="#111214"/>
<rect x="315.5" y="238" width="3" height="3" fill="#111214"/>
<rect x="321.5" y="238" width="3" height="3" fill="#111214"/>
<rect x="327.5" y="238" width="9" height="3" fill="#111214"/>
<rect x="339.5" y="238" width="3" height="3" fill="#111214"/>
<rect x="345.5" y="238" width="3" height="3" fill="#111214"/>
<rect x="354.5" y="238" width="6" height="3" fill="#111214"/>
<rect x="366.5" y="238" width="3" height="3" fill="#111214"/>
  <path d="M314 258 H374" stroke="#4E535D" stroke-width="1"/>
</g><g>
  <animateTransform attributeName="transform" type="rotate" values="0 461.0 150; 1.1 461.0 150; -1.1 461.0 150; 0 461.0 150" dur="7.2s" repeatCount="indefinite"/>
  <path d="M461.0 150 V186" stroke="#8A6E1F" stroke-width="2"/>
  <rect x="413" y="186" width="96" height="92" fill="#E9E6DF"/>
  <rect x="413" y="186" width="96" height="4" fill="#C9A227"/>
  <circle cx="461.0" cy="200" r="3" fill="#2A2D35"/>
  <rect x="447.5" y="226" width="6" height="3" fill="#111214"/>
<rect x="444.5" y="229" width="3" height="3" fill="#111214"/>
<rect x="459.5" y="229" width="3" height="3" fill="#111214"/>
<rect x="471.5" y="229" width="3" height="3" fill="#111214"/>
<rect x="444.5" y="232" width="3" height="3" fill="#111214"/>
<rect x="456.5" y="232" width="9" height="3" fill="#111214"/>
<rect x="468.5" y="232" width="9" height="3" fill="#111214"/>
<rect x="444.5" y="235" width="3" height="3" fill="#111214"/>
<rect x="459.5" y="235" width="3" height="3" fill="#111214"/>
<rect x="471.5" y="235" width="3" height="3" fill="#111214"/>
<rect x="447.5" y="238" width="6" height="3" fill="#111214"/>
  <path d="M431 258 H491" stroke="#4E535D" stroke-width="1"/>
</g><g>
  <animateTransform attributeName="transform" type="rotate" values="0 578.0 150; 1.1 578.0 150; -1.1 578.0 150; 0 578.0 150" dur="7.6s" repeatCount="indefinite"/>
  <path d="M578.0 150 V186" stroke="#8A6E1F" stroke-width="2"/>
  <rect x="530" y="186" width="96" height="92" fill="#E9E6DF"/>
  <rect x="530" y="186" width="96" height="4" fill="#C9A227"/>
  <circle cx="578.0" cy="200" r="3" fill="#2A2D35"/>
  <rect x="531.5" y="226" width="6" height="3" fill="#111214"/>
<rect x="546.5" y="226" width="3" height="3" fill="#111214"/>
<rect x="558.5" y="226" width="6" height="3" fill="#111214"/>
<rect x="567.5" y="226" width="9" height="3" fill="#111214"/>
<rect x="582.5" y="226" width="6" height="3" fill="#111214"/>
<rect x="591.5" y="226" width="6" height="3" fill="#111214"/>
<rect x="603.5" y="226" width="9" height="3" fill="#111214"/>
<rect x="618.5" y="226" width="6" height="3" fill="#111214"/>
<rect x="531.5" y="229" width="3" height="3" fill="#111214"/>
<rect x="537.5" y="229" width="3" height="3" fill="#111214"/>
<rect x="543.5" y="229" width="3" height="3" fill="#111214"/>
<rect x="549.5" y="229" width="3" height="3" fill="#111214"/>
<rect x="555.5" y="229" width="3" height="3" fill="#111214"/>
<rect x="570.5" y="229" width="3" height="3" fill="#111214"/>
<rect x="579.5" y="229" width="3" height="3" fill="#111214"/>
<rect x="591.5" y="229" width="3" height="3" fill="#111214"/>
<rect x="597.5" y="229" width="3" height="3" fill="#111214"/>
<rect x="603.5" y="229" width="3" height="3" fill="#111214"/>
<rect x="615.5" y="229" width="3" height="3" fill="#111214"/>
<rect x="531.5" y="232" width="6" height="3" fill="#111214"/>
<rect x="543.5" y="232" width="3" height="3" fill="#111214"/>
<rect x="549.5" y="232" width="3" height="3" fill="#111214"/>
<rect x="558.5" y="232" width="3" height="3" fill="#111214"/>
<rect x="570.5" y="232" width="3" height="3" fill="#111214"/>
<rect x="579.5" y="232" width="3" height="3" fill="#111214"/>
<rect x="585.5" y="232" width="3" height="3" fill="#111214"/>
<rect x="591.5" y="232" width="6" height="3" fill="#111214"/>
<rect x="603.5" y="232" width="6" height="3" fill="#111214"/>
<rect x="618.5" y="232" width="3" height="3" fill="#111214"/>
<rect x="531.5" y="235" width="3" height="3" fill="#111214"/>
<rect x="543.5" y="235" width="3" height="3" fill="#111214"/>
<rect x="549.5" y="235" width="3" height="3" fill="#111214"/>
<rect x="561.5" y="235" width="3" height="3" fill="#111214"/>
<rect x="570.5" y="235" width="3" height="3" fill="#111214"/>
<rect x="579.5" y="235" width="3" height="3" fill="#111214"/>
<rect x="585.5" y="235" width="3" height="3" fill="#111214"/>
<rect x="591.5" y="235" width="3" height="3" fill="#111214"/>
<rect x="597.5" y="235" width="3" height="3" fill="#111214"/>
<rect x="603.5" y="235" width="3" height="3" fill="#111214"/>
<rect x="621.5" y="235" width="3" height="3" fill="#111214"/>
<rect x="531.5" y="238" width="3" height="3" fill="#111214"/>
<rect x="546.5" y="238" width="3" height="3" fill="#111214"/>
<rect x="555.5" y="238" width="6" height="3" fill="#111214"/>
<rect x="570.5" y="238" width="3" height="3" fill="#111214"/>
<rect x="582.5" y="238" width="6" height="3" fill="#111214"/>
<rect x="591.5" y="238" width="3" height="3" fill="#111214"/>
<rect x="597.5" y="238" width="3" height="3" fill="#111214"/>
<rect x="603.5" y="238" width="9" height="3" fill="#111214"/>
<rect x="615.5" y="238" width="6" height="3" fill="#111214"/>
  <path d="M548 258 H608" stroke="#4E535D" stroke-width="1"/>
</g><g>
  <animateTransform attributeName="transform" type="rotate" values="0 695.0 150; 1.1 695.0 150; -1.1 695.0 150; 0 695.0 150" dur="8.0s" repeatCount="indefinite"/>
  <path d="M695.0 150 V186" stroke="#8A6E1F" stroke-width="2"/>
  <rect x="647" y="186" width="96" height="92" fill="#E9E6DF"/>
  <rect x="647" y="186" width="96" height="4" fill="#C9A227"/>
  <circle cx="695.0" cy="200" r="3" fill="#2A2D35"/>
  <rect x="660.5" y="226" width="6" height="3" fill="#111214"/>
<rect x="675.5" y="226" width="3" height="3" fill="#111214"/>
<rect x="687.5" y="226" width="6" height="3" fill="#111214"/>
<rect x="696.5" y="226" width="3" height="3" fill="#111214"/>
<rect x="702.5" y="226" width="3" height="3" fill="#111214"/>
<rect x="708.5" y="226" width="9" height="3" fill="#111214"/>
<rect x="720.5" y="226" width="6" height="3" fill="#111214"/>
<rect x="660.5" y="229" width="3" height="3" fill="#111214"/>
<rect x="666.5" y="229" width="3" height="3" fill="#111214"/>
<rect x="672.5" y="229" width="3" height="3" fill="#111214"/>
<rect x="678.5" y="229" width="3" height="3" fill="#111214"/>
<rect x="684.5" y="229" width="3" height="3" fill="#111214"/>
<rect x="696.5" y="229" width="3" height="3" fill="#111214"/>
<rect x="702.5" y="229" width="3" height="3" fill="#111214"/>
<rect x="708.5" y="229" width="3" height="3" fill="#111214"/>
<rect x="720.5" y="229" width="3" height="3" fill="#111214"/>
<rect x="726.5" y="229" width="3" height="3" fill="#111214"/>
<rect x="660.5" y="232" width="3" height="3" fill="#111214"/>
<rect x="666.5" y="232" width="3" height="3" fill="#111214"/>
<rect x="672.5" y="232" width="3" height="3" fill="#111214"/>
<rect x="678.5" y="232" width="3" height="3" fill="#111214"/>
<rect x="684.5" y="232" width="3" height="3" fill="#111214"/>
<rect x="696.5" y="232" width="6" height="3" fill="#111214"/>
<rect x="708.5" y="232" width="6" height="3" fill="#111214"/>
<rect x="720.5" y="232" width="6" height="3" fill="#111214"/>
<rect x="660.5" y="235" width="3" height="3" fill="#111214"/>
<rect x="666.5" y="235" width="3" height="3" fill="#111214"/>
<rect x="672.5" y="235" width="3" height="3" fill="#111214"/>
<rect x="678.5" y="235" width="3" height="3" fill="#111214"/>
<rect x="684.5" y="235" width="3" height="3" fill="#111214"/>
<rect x="696.5" y="235" width="3" height="3" fill="#111214"/>
<rect x="702.5" y="235" width="3" height="3" fill="#111214"/>
<rect x="708.5" y="235" width="3" height="3" fill="#111214"/>
<rect x="720.5" y="235" width="3" height="3" fill="#111214"/>
<rect x="726.5" y="235" width="3" height="3" fill="#111214"/>
<rect x="660.5" y="238" width="6" height="3" fill="#111214"/>
<rect x="675.5" y="238" width="3" height="3" fill="#111214"/>
<rect x="687.5" y="238" width="6" height="3" fill="#111214"/>
<rect x="696.5" y="238" width="3" height="3" fill="#111214"/>
<rect x="702.5" y="238" width="3" height="3" fill="#111214"/>
<rect x="708.5" y="238" width="9" height="3" fill="#111214"/>
<rect x="720.5" y="238" width="3" height="3" fill="#111214"/>
<rect x="726.5" y="238" width="3" height="3" fill="#111214"/>
  <path d="M665 258 H725" stroke="#4E535D" stroke-width="1"/>
</g><g>
  <animateTransform attributeName="transform" type="rotate" values="0 812.0 150; 1.1 812.0 150; -1.1 812.0 150; 0 812.0 150" dur="8.4s" repeatCount="indefinite"/>
  <path d="M812.0 150 V186" stroke="#8A6E1F" stroke-width="2"/>
  <rect x="764" y="186" width="96" height="92" fill="#E9E6DF"/>
  <rect x="764" y="186" width="96" height="4" fill="#C9A227"/>
  <circle cx="812.0" cy="200" r="3" fill="#2A2D35"/>
  <rect x="783.5" y="226" width="9" height="3" fill="#111214"/>
<rect x="798.5" y="226" width="3" height="3" fill="#111214"/>
<rect x="807.5" y="226" width="6" height="3" fill="#111214"/>
<rect x="822.5" y="226" width="6" height="3" fill="#111214"/>
<rect x="831.5" y="226" width="3" height="3" fill="#111214"/>
<rect x="837.5" y="226" width="3" height="3" fill="#111214"/>
<rect x="786.5" y="229" width="3" height="3" fill="#111214"/>
<rect x="795.5" y="229" width="3" height="3" fill="#111214"/>
<rect x="801.5" y="229" width="3" height="3" fill="#111214"/>
<rect x="807.5" y="229" width="3" height="3" fill="#111214"/>
<rect x="813.5" y="229" width="3" height="3" fill="#111214"/>
<rect x="819.5" y="229" width="3" height="3" fill="#111214"/>
<rect x="831.5" y="229" width="3" height="3" fill="#111214"/>
<rect x="837.5" y="229" width="3" height="3" fill="#111214"/>
<rect x="786.5" y="232" width="3" height="3" fill="#111214"/>
<rect x="795.5" y="232" width="3" height="3" fill="#111214"/>
<rect x="801.5" y="232" width="3" height="3" fill="#111214"/>
<rect x="807.5" y="232" width="6" height="3" fill="#111214"/>
<rect x="819.5" y="232" width="3" height="3" fill="#111214"/>
<rect x="831.5" y="232" width="9" height="3" fill="#111214"/>
<rect x="786.5" y="235" width="3" height="3" fill="#111214"/>
<rect x="795.5" y="235" width="3" height="3" fill="#111214"/>
<rect x="801.5" y="235" width="3" height="3" fill="#111214"/>
<rect x="807.5" y="235" width="3" height="3" fill="#111214"/>
<rect x="813.5" y="235" width="3" height="3" fill="#111214"/>
<rect x="819.5" y="235" width="3" height="3" fill="#111214"/>
<rect x="831.5" y="235" width="3" height="3" fill="#111214"/>
<rect x="837.5" y="235" width="3" height="3" fill="#111214"/>
<rect x="786.5" y="238" width="3" height="3" fill="#111214"/>
<rect x="798.5" y="238" width="3" height="3" fill="#111214"/>
<rect x="807.5" y="238" width="3" height="3" fill="#111214"/>
<rect x="813.5" y="238" width="3" height="3" fill="#111214"/>
<rect x="822.5" y="238" width="6" height="3" fill="#111214"/>
<rect x="831.5" y="238" width="3" height="3" fill="#111214"/>
<rect x="837.5" y="238" width="3" height="3" fill="#111214"/>
  <path d="M782 258 H842" stroke="#4E535D" stroke-width="1"/>
</g>
  <rect x="20" y="356" width="880" height="66" fill="#2A2D35"/>
  <rect x="20" y="356" width="880" height="2" fill="#8A6E1F"/>
<g>
  <animateTransform attributeName="transform" type="translate" values="0 0; 0 -1.0; 0 0" dur="3s" repeatCount="indefinite"/>
<rect x="66" y="280" width="9" height="3" fill="#14161A"/>
<rect x="108" y="280" width="9" height="3" fill="#14161A"/>
<rect x="66" y="283" width="3" height="3" fill="#14161A"/>
<rect x="69" y="283" width="3" height="3" fill="#DCD6C8"/>
<rect x="72" y="283" width="6" height="3" fill="#14161A"/>
<rect x="105" y="283" width="6" height="3" fill="#14161A"/>
<rect x="111" y="283" width="3" height="3" fill="#DCD6C8"/>
<rect x="114" y="283" width="3" height="3" fill="#14161A"/>
<rect x="66" y="286" width="3" height="3" fill="#14161A"/>
<rect x="69" y="286" width="6" height="3" fill="#DCD6C8"/>
<rect x="75" y="286" width="3" height="3" fill="#14161A"/>
<rect x="105" y="286" width="3" height="3" fill="#14161A"/>
<rect x="108" y="286" width="6" height="3" fill="#DCD6C8"/>
<rect x="114" y="286" width="3" height="3" fill="#14161A"/>
<rect x="66" y="289" width="3" height="3" fill="#14161A"/>
<rect x="69" y="289" width="6" height="3" fill="#DCD6C8"/>
<rect x="75" y="289" width="33" height="3" fill="#14161A"/>
<rect x="108" y="289" width="6" height="3" fill="#DCD6C8"/>
<rect x="114" y="289" width="3" height="3" fill="#14161A"/>
<rect x="66" y="292" width="3" height="3" fill="#14161A"/>
<rect x="69" y="292" width="9" height="3" fill="#DCD6C8"/>
<rect x="78" y="292" width="3" height="3" fill="#14161A"/>
<rect x="81" y="292" width="21" height="3" fill="#E4572E"/>
<rect x="102" y="292" width="3" height="3" fill="#14161A"/>
<rect x="105" y="292" width="9" height="3" fill="#DCD6C8"/>
<rect x="114" y="292" width="3" height="3" fill="#14161A"/>
<rect x="66" y="295" width="6" height="3" fill="#14161A"/>
<rect x="72" y="295" width="3" height="3" fill="#9C9484"/>
<rect x="75" y="295" width="6" height="3" fill="#DCD6C8"/>
<rect x="81" y="295" width="21" height="3" fill="#C0431F"/>
<rect x="102" y="295" width="6" height="3" fill="#DCD6C8"/>
<rect x="108" y="295" width="3" height="3" fill="#9C9484"/>
<rect x="111" y="295" width="6" height="3" fill="#14161A"/>
<rect x="66" y="298" width="6" height="3" fill="#14161A"/>
<rect x="72" y="298" width="9" height="3" fill="#DCD6C8"/>
<rect x="81" y="298" width="21" height="3" fill="#C0431F"/>
<rect x="102" y="298" width="9" height="3" fill="#DCD6C8"/>
<rect x="111" y="298" width="6" height="3" fill="#14161A"/>
<rect x="66" y="301" width="3" height="3" fill="#14161A"/>
<rect x="69" y="301" width="3" height="3" fill="#E4572E"/>
<rect x="72" y="301" width="39" height="3" fill="#C0431F"/>
<rect x="111" y="301" width="3" height="3" fill="#E4572E"/>
<rect x="114" y="301" width="3" height="3" fill="#14161A"/>
<rect x="63" y="304" width="6" height="3" fill="#14161A"/>
<rect x="69" y="304" width="45" height="3" fill="#C0431F"/>
<rect x="114" y="304" width="6" height="3" fill="#14161A"/>
<rect x="63" y="307" width="3" height="3" fill="#14161A"/>
<rect x="66" y="307" width="3" height="3" fill="#E4572E"/>
<rect x="69" y="307" width="6" height="3" fill="#C0431F"/>
<rect x="75" y="307" width="3" height="3" fill="#F7F5F0"/>
<rect x="78" y="307" width="6" height="3" fill="#111214"/>
<rect x="84" y="307" width="15" height="3" fill="#C0431F"/>
<rect x="99" y="307" width="3" height="3" fill="#F7F5F0"/>
<rect x="102" y="307" width="6" height="3" fill="#111214"/>
<rect x="108" y="307" width="6" height="3" fill="#C0431F"/>
<rect x="114" y="307" width="3" height="3" fill="#E4572E"/>
<rect x="117" y="307" width="3" height="3" fill="#14161A"/>
<rect x="63" y="310" width="3" height="3" fill="#14161A"/>
<rect x="66" y="310" width="9" height="3" fill="#C0431F"/>
<rect x="75" y="310" width="9" height="3" fill="#111214"/>
<rect x="84" y="310" width="15" height="3" fill="#C0431F"/>
<rect x="99" y="310" width="9" height="3" fill="#111214"/>
<rect x="108" y="310" width="9" height="3" fill="#C0431F"/>
<rect x="117" y="310" width="3" height="3" fill="#14161A"/>
<rect x="51" y="313" width="9" height="3" fill="#14161A"/>
<rect x="63" y="313" width="3" height="3" fill="#14161A"/>
<rect x="66" y="313" width="9" height="3" fill="#C0431F"/>
<rect x="75" y="313" width="6" height="3" fill="#111214"/>
<rect x="81" y="313" width="3" height="3" fill="#9C9484"/>
<rect x="84" y="313" width="15" height="3" fill="#C0431F"/>
<rect x="99" y="313" width="6" height="3" fill="#111214"/>
<rect x="105" y="313" width="3" height="3" fill="#9C9484"/>
<rect x="108" y="313" width="9" height="3" fill="#C0431F"/>
<rect x="117" y="313" width="3" height="3" fill="#14161A"/>
<rect x="123" y="313" width="9" height="3" fill="#14161A"/>
<rect x="48" y="316" width="6" height="3" fill="#14161A"/>
<rect x="54" y="316" width="3" height="3" fill="#8E3218"/>
<rect x="57" y="316" width="9" height="3" fill="#14161A"/>
<rect x="66" y="316" width="51" height="3" fill="#C0431F"/>
<rect x="117" y="316" width="9" height="3" fill="#14161A"/>
<rect x="126" y="316" width="3" height="3" fill="#8E3218"/>
<rect x="129" y="316" width="6" height="3" fill="#14161A"/>
<rect x="48" y="319" width="3" height="3" fill="#14161A"/>
<rect x="51" y="319" width="3" height="3" fill="#8E3218"/>
<rect x="54" y="319" width="6" height="3" fill="#D06A34"/>
<rect x="60" y="319" width="6" height="3" fill="#14161A"/>
<rect x="66" y="319" width="3" height="3" fill="#7E2A12"/>
<rect x="69" y="319" width="6" height="3" fill="#EC8A62"/>
<rect x="75" y="319" width="33" height="3" fill="#C0431F"/>
<rect x="108" y="319" width="6" height="3" fill="#EC8A62"/>
<rect x="114" y="319" width="3" height="3" fill="#7E2A12"/>
<rect x="117" y="319" width="6" height="3" fill="#14161A"/>
<rect x="123" y="319" width="6" height="3" fill="#D06A34"/>
<rect x="129" y="319" width="3" height="3" fill="#8E3218"/>
<rect x="132" y="319" width="3" height="3" fill="#14161A"/>
<rect x="48" y="322" width="3" height="3" fill="#14161A"/>
<rect x="51" y="322" width="3" height="3" fill="#8E3218"/>
<rect x="54" y="322" width="6" height="3" fill="#D06A34"/>
<rect x="60" y="322" width="9" height="3" fill="#14161A"/>
<rect x="69" y="322" width="18" height="3" fill="#C0431F"/>
<rect x="87" y="322" width="3" height="3" fill="#6E2311"/>
<rect x="90" y="322" width="3" height="3" fill="#C0431F"/>
<rect x="93" y="322" width="3" height="3" fill="#6E2311"/>
<rect x="96" y="322" width="18" height="3" fill="#C0431F"/>
<rect x="114" y="322" width="9" height="3" fill="#14161A"/>
<rect x="123" y="322" width="6" height="3" fill="#D06A34"/>
<rect x="129" y="322" width="3" height="3" fill="#8E3218"/>
<rect x="132" y="322" width="3" height="3" fill="#14161A"/>
<rect x="48" y="325" width="3" height="3" fill="#14161A"/>
<rect x="51" y="325" width="3" height="3" fill="#8E3218"/>
<rect x="54" y="325" width="3" height="3" fill="#D06A34"/>
<rect x="57" y="325" width="3" height="3" fill="#8E3218"/>
<rect x="60" y="325" width="3" height="3" fill="#D06A34"/>
<rect x="63" y="325" width="6" height="3" fill="#14161A"/>
<rect x="69" y="325" width="3" height="3" fill="#7E2A12"/>
<rect x="72" y="325" width="39" height="3" fill="#C0431F"/>
<rect x="111" y="325" width="3" height="3" fill="#7E2A12"/>
<rect x="114" y="325" width="6" height="3" fill="#14161A"/>
<rect x="120" y="325" width="3" height="3" fill="#D06A34"/>
<rect x="123" y="325" width="3" height="3" fill="#8E3218"/>
<rect x="126" y="325" width="3" height="3" fill="#D06A34"/>
<rect x="129" y="325" width="3" height="3" fill="#8E3218"/>
<rect x="132" y="325" width="6" height="3" fill="#14161A"/>
<rect x="48" y="328" width="6" height="3" fill="#8E3218"/>
<rect x="54" y="328" width="3" height="3" fill="#D06A34"/>
<rect x="57" y="328" width="3" height="3" fill="#8E3218"/>
<rect x="60" y="328" width="3" height="3" fill="#D06A34"/>
<rect x="63" y="328" width="3" height="3" fill="#8E3218"/>
<rect x="66" y="328" width="6" height="3" fill="#14161A"/>
<rect x="72" y="328" width="12" height="3" fill="#C0431F"/>
<rect x="84" y="328" width="15" height="3" fill="#2A0E08"/>
<rect x="99" y="328" width="12" height="3" fill="#C0431F"/>
<rect x="111" y="328" width="6" height="3" fill="#14161A"/>
<rect x="117" y="328" width="3" height="3" fill="#8E3218"/>
<rect x="120" y="328" width="3" height="3" fill="#D06A34"/>
<rect x="123" y="328" width="3" height="3" fill="#8E3218"/>
<rect x="126" y="328" width="3" height="3" fill="#D06A34"/>
<rect x="129" y="328" width="6" height="3" fill="#8E3218"/>
<rect x="135" y="328" width="3" height="3" fill="#14161A"/>
<rect x="48" y="331" width="6" height="3" fill="#8E3218"/>
<rect x="54" y="331" width="3" height="3" fill="#D06A34"/>
<rect x="57" y="331" width="3" height="3" fill="#8E3218"/>
<rect x="60" y="331" width="3" height="3" fill="#D06A34"/>
<rect x="63" y="331" width="3" height="3" fill="#8E3218"/>
<rect x="66" y="331" width="3" height="3" fill="#14161A"/>
<rect x="69" y="331" width="3" height="3" fill="#E4572E"/>
<rect x="72" y="331" width="15" height="3" fill="#C0431F"/>
<rect x="87" y="331" width="3" height="3" fill="#2A0E08"/>
<rect x="90" y="331" width="3" height="3" fill="#C0431F"/>
<rect x="93" y="331" width="3" height="3" fill="#2A0E08"/>
<rect x="96" y="331" width="15" height="3" fill="#C0431F"/>
<rect x="111" y="331" width="3" height="3" fill="#E4572E"/>
<rect x="114" y="331" width="3" height="3" fill="#14161A"/>
<rect x="117" y="331" width="3" height="3" fill="#8E3218"/>
<rect x="120" y="331" width="3" height="3" fill="#D06A34"/>
<rect x="123" y="331" width="3" height="3" fill="#8E3218"/>
<rect x="126" y="331" width="3" height="3" fill="#D06A34"/>
<rect x="129" y="331" width="6" height="3" fill="#8E3218"/>
<rect x="135" y="331" width="3" height="3" fill="#14161A"/>
<rect x="48" y="334" width="3" height="3" fill="#14161A"/>
<rect x="51" y="334" width="3" height="3" fill="#8E3218"/>
<rect x="54" y="334" width="3" height="3" fill="#D06A34"/>
<rect x="57" y="334" width="3" height="3" fill="#8E3218"/>
<rect x="60" y="334" width="3" height="3" fill="#D06A34"/>
<rect x="63" y="334" width="6" height="3" fill="#8E3218"/>
<rect x="69" y="334" width="15" height="3" fill="#C0431F"/>
<rect x="84" y="334" width="15" height="3" fill="#C9A227"/>
<rect x="99" y="334" width="15" height="3" fill="#C0431F"/>
<rect x="114" y="334" width="6" height="3" fill="#8E3218"/>
<rect x="120" y="334" width="3" height="3" fill="#D06A34"/>
<rect x="123" y="334" width="3" height="3" fill="#8E3218"/>
<rect x="126" y="334" width="3" height="3" fill="#D06A34"/>
<rect x="129" y="334" width="3" height="3" fill="#8E3218"/>
<rect x="132" y="334" width="6" height="3" fill="#14161A"/>
<rect x="48" y="337" width="3" height="3" fill="#14161A"/>
<rect x="51" y="337" width="3" height="3" fill="#8E3218"/>
<rect x="54" y="337" width="3" height="3" fill="#D06A34"/>
<rect x="57" y="337" width="3" height="3" fill="#8E3218"/>
<rect x="60" y="337" width="3" height="3" fill="#D06A34"/>
<rect x="63" y="337" width="6" height="3" fill="#8E3218"/>
<rect x="69" y="337" width="12" height="3" fill="#C0431F"/>
<rect x="81" y="337" width="21" height="3" fill="#E0B457"/>
<rect x="102" y="337" width="12" height="3" fill="#C0431F"/>
<rect x="114" y="337" width="6" height="3" fill="#8E3218"/>
<rect x="120" y="337" width="3" height="3" fill="#D06A34"/>
<rect x="123" y="337" width="3" height="3" fill="#8E3218"/>
<rect x="126" y="337" width="3" height="3" fill="#D06A34"/>
<rect x="129" y="337" width="3" height="3" fill="#8E3218"/>
<rect x="132" y="337" width="3" height="3" fill="#14161A"/>
<rect x="48" y="340" width="3" height="3" fill="#14161A"/>
<rect x="51" y="340" width="3" height="3" fill="#8E3218"/>
<rect x="54" y="340" width="3" height="3" fill="#D06A34"/>
<rect x="57" y="340" width="6" height="3" fill="#8E3218"/>
<rect x="63" y="340" width="3" height="3" fill="#D06A34"/>
<rect x="66" y="340" width="3" height="3" fill="#8E3218"/>
<rect x="69" y="340" width="9" height="3" fill="#C0431F"/>
<rect x="78" y="340" width="27" height="3" fill="#E0B457"/>
<rect x="105" y="340" width="9" height="3" fill="#C0431F"/>
<rect x="114" y="340" width="3" height="3" fill="#8E3218"/>
<rect x="117" y="340" width="3" height="3" fill="#D06A34"/>
<rect x="120" y="340" width="6" height="3" fill="#8E3218"/>
<rect x="126" y="340" width="3" height="3" fill="#D06A34"/>
<rect x="129" y="340" width="3" height="3" fill="#8E3218"/>
<rect x="132" y="340" width="3" height="3" fill="#14161A"/>
<rect x="48" y="343" width="6" height="3" fill="#14161A"/>
<rect x="54" y="343" width="3" height="3" fill="#D06A34"/>
<rect x="57" y="343" width="6" height="3" fill="#8E3218"/>
<rect x="63" y="343" width="3" height="3" fill="#D06A34"/>
<rect x="66" y="343" width="9" height="3" fill="#C0431F"/>
<rect x="75" y="343" width="33" height="3" fill="#E0B457"/>
<rect x="108" y="343" width="9" height="3" fill="#C0431F"/>
<rect x="117" y="343" width="3" height="3" fill="#D06A34"/>
<rect x="120" y="343" width="6" height="3" fill="#8E3218"/>
<rect x="126" y="343" width="3" height="3" fill="#D06A34"/>
<rect x="129" y="343" width="6" height="3" fill="#14161A"/>
<rect x="51" y="346" width="9" height="3" fill="#14161A"/>
<rect x="60" y="346" width="15" height="3" fill="#C0431F"/>
<rect x="75" y="346" width="33" height="3" fill="#C9A227"/>
<rect x="108" y="346" width="15" height="3" fill="#C0431F"/>
<rect x="123" y="346" width="9" height="3" fill="#14161A"/>
<rect x="57" y="349" width="3" height="3" fill="#14161A"/>
<rect x="60" y="349" width="15" height="3" fill="#C0431F"/>
<rect x="75" y="349" width="33" height="3" fill="#E0B457"/>
<rect x="108" y="349" width="15" height="3" fill="#C0431F"/>
<rect x="123" y="349" width="3" height="3" fill="#14161A"/>
<rect x="57" y="352" width="3" height="3" fill="#14161A"/>
<rect x="60" y="352" width="3" height="3" fill="#7E2A12"/>
<rect x="63" y="352" width="12" height="3" fill="#C0431F"/>
<rect x="75" y="352" width="33" height="3" fill="#E0B457"/>
<rect x="108" y="352" width="12" height="3" fill="#C0431F"/>
<rect x="120" y="352" width="3" height="3" fill="#7E2A12"/>
<rect x="123" y="352" width="3" height="3" fill="#14161A"/>
<rect x="57" y="355" width="6" height="3" fill="#14161A"/>
<rect x="63" y="355" width="6" height="3" fill="#7E2A12"/>
<rect x="69" y="355" width="6" height="3" fill="#C0431F"/>
<rect x="75" y="355" width="33" height="3" fill="#E0B457"/>
<rect x="108" y="355" width="6" height="3" fill="#C0431F"/>
<rect x="114" y="355" width="6" height="3" fill="#7E2A12"/>
<rect x="120" y="355" width="6" height="3" fill="#14161A"/>
<rect x="60" y="358" width="9" height="3" fill="#14161A"/>
<rect x="69" y="358" width="9" height="3" fill="#C0431F"/>
<rect x="78" y="358" width="27" height="3" fill="#C9A227"/>
<rect x="105" y="358" width="9" height="3" fill="#C0431F"/>
<rect x="114" y="358" width="9" height="3" fill="#14161A"/>
<rect x="63" y="361" width="3" height="3" fill="#14161A"/>
<rect x="66" y="361" width="3" height="3" fill="#E4572E"/>
<rect x="69" y="361" width="12" height="3" fill="#C0431F"/>
<rect x="81" y="361" width="21" height="3" fill="#E0B457"/>
<rect x="102" y="361" width="12" height="3" fill="#C0431F"/>
<rect x="114" y="361" width="3" height="3" fill="#E4572E"/>
<rect x="117" y="361" width="3" height="3" fill="#14161A"/>
<rect x="63" y="364" width="3" height="3" fill="#14161A"/>
<rect x="66" y="364" width="18" height="3" fill="#C0431F"/>
<rect x="84" y="364" width="15" height="3" fill="#E0B457"/>
<rect x="99" y="364" width="18" height="3" fill="#C0431F"/>
<rect x="117" y="364" width="3" height="3" fill="#14161A"/>
<rect x="63" y="367" width="3" height="3" fill="#14161A"/>
<rect x="66" y="367" width="3" height="3" fill="#7E2A12"/>
<rect x="69" y="367" width="3" height="3" fill="#DCD6C8"/>
<rect x="72" y="367" width="3" height="3" fill="#C0431F"/>
<rect x="75" y="367" width="3" height="3" fill="#DCD6C8"/>
<rect x="78" y="367" width="3" height="3" fill="#C0431F"/>
<rect x="81" y="367" width="3" height="3" fill="#DCD6C8"/>
<rect x="84" y="367" width="15" height="3" fill="#7E2A12"/>
<rect x="99" y="367" width="3" height="3" fill="#DCD6C8"/>
<rect x="102" y="367" width="3" height="3" fill="#C0431F"/>
<rect x="105" y="367" width="3" height="3" fill="#DCD6C8"/>
<rect x="108" y="367" width="3" height="3" fill="#C0431F"/>
<rect x="111" y="367" width="3" height="3" fill="#DCD6C8"/>
<rect x="114" y="367" width="3" height="3" fill="#7E2A12"/>
<rect x="117" y="367" width="3" height="3" fill="#14161A"/>
<rect x="63" y="370" width="6" height="3" fill="#14161A"/>
<rect x="69" y="370" width="15" height="3" fill="#7E2A12"/>
<rect x="84" y="370" width="15" height="3" fill="#14161A"/>
<rect x="99" y="370" width="15" height="3" fill="#7E2A12"/>
<rect x="114" y="370" width="6" height="3" fill="#14161A"/>
<rect x="66" y="373" width="21" height="3" fill="#14161A"/>
<rect x="96" y="373" width="21" height="3" fill="#14161A"/>
<g opacity="0">
<rect x="126" y="268" width="3" height="3" fill="#FFE3A3"/>
<rect x="123" y="271" width="3" height="3" fill="#FFE3A3"/>
<rect x="126" y="271" width="3" height="3" fill="#F2A03C"/>
<rect x="129" y="271" width="3" height="3" fill="#FFE3A3"/>
<rect x="120" y="274" width="3" height="3" fill="#FFE3A3"/>
<rect x="123" y="274" width="3" height="3" fill="#F2A03C"/>
<rect x="126" y="274" width="3" height="3" fill="#E4572E"/>
<rect x="129" y="274" width="3" height="3" fill="#F2A03C"/>
<rect x="132" y="274" width="3" height="3" fill="#FFE3A3"/>
<rect x="123" y="277" width="3" height="3" fill="#FFE3A3"/>
<rect x="126" y="277" width="3" height="3" fill="#F2A03C"/>
<rect x="129" y="277" width="3" height="3" fill="#FFE3A3"/>
<rect x="126" y="280" width="3" height="3" fill="#FFE3A3"/>
<animate attributeName="opacity" values="0;1;0" dur="3.2s" begin="0s" repeatCount="indefinite"/>
</g>
</g>
<rect x="826" y="316" width="25" height="5" fill="#6B7078"/>
<rect x="821" y="321" width="35" height="5" fill="#3A342C"/>
<rect x="816" y="326" width="45" height="5" fill="#3A342C"/>
<rect x="826" y="331" width="25" height="5" fill="#3A342C"/>
<rect x="831" y="336" width="15" height="5" fill="#3A342C"/>
<rect x="831" y="341" width="15" height="5" fill="#3A342C"/>
<rect x="826" y="346" width="25" height="5" fill="#3A342C"/>
<rect x="821" y="351" width="35" height="5" fill="#3A342C"/>
  <text x="460" y="398" text-anchor="middle" font-family="Georgia, 'Times New Roman', serif" font-size="11" fill="#C9A227" letter-spacing="4">SAME SIZE TAGS. NO SCORES.</text>

</svg>
