<svg xmlns="http://www.w3.org/2000/svg" width="520" height="220" viewBox="0 0 520 220" role="img" aria-labelledby="title desc" shape-rendering="crispEdges">
  <title id="title">Dragon delivering mail</title>
  <desc id="desc">A pixel dragon flying a cream envelope across warm paper.</desc>
  <defs>
    <linearGradient id="duskSky" x1="0" y1="0" x2="0" y2="1">
      <stop offset="0" stop-color="#E7C4A2"/>
      <stop offset=".42" stop-color="#F0D3B0"/>
      <stop offset="1" stop-color="#C9B48A"/>
    </linearGradient>
    <linearGradient id="paperSky" x1="0" y1="0" x2="0" y2="1">
      <stop offset="0" stop-color="#F6EFE4"/>
      <stop offset="1" stop-color="#E4D3B4"/>
    </linearGradient>
    <linearGradient id="hillA" x1="0" y1="0" x2="0" y2="1">
      <stop offset="0" stop-color="#8AA078"/>
      <stop offset="1" stop-color="#5F734C"/>
    </linearGradient>
    <linearGradient id="hillB" x1="0" y1="0" x2="0" y2="1">
      <stop offset="0" stop-color="#6F8F5E"/>
      <stop offset="1" stop-color="#4F6B45"/>
    </linearGradient>
    <linearGradient id="wood" x1="0" y1="0" x2="0" y2="1">
      <stop offset="0" stop-color="#6B4A32"/>
      <stop offset="1" stop-color="#4A3224"/>
    </linearGradient>
    <radialGradient id="lamp" cx="50%" cy="40%" r="50%">
      <stop offset="0" stop-color="#FFF3A0" stop-opacity=".9"/>
      <stop offset=".45" stop-color="#E8A070" stop-opacity=".28"/>
      <stop offset="1" stop-color="#E07A3D" stop-opacity="0"/>
    </radialGradient>
    <radialGradient id="hearth" cx="50%" cy="60%" r="50%">
      <stop offset="0" stop-color="#FFF3A0" stop-opacity=".7"/>
      <stop offset="1" stop-color="#C45C32" stop-opacity="0"/>
    </radialGradient>
    <filter id="softPaper" x="-2%" y="-2%" width="104%" height="108%">
      <feDropShadow dx="0" dy="3" stdDeviation="4" flood-color="#3A2418" flood-opacity=".18"/>
    </filter>
    
  </defs>
  <rect width="520" height="220" fill="#F4EBD8"/>
  <text x="260" y="34" text-anchor="middle" font-family="Georgia, 'Times New Roman', serif" font-size="16" fill="#3A2418">dragon post</text>
  <g>
    <animateTransform attributeName="transform" type="translate" values="0 20; 360 0; 0 20" dur="8s" repeatCount="indefinite"/>
<rect x="100" y="70" width="4" height="4" fill="#F0DDB8"/>
<rect x="108" y="70" width="4" height="4" fill="#F0DDB8"/>
<rect x="96" y="74" width="4" height="4" fill="#F0DDB8"/>
<rect x="100" y="74" width="4" height="4" fill="#3A2418"/>
<rect x="104" y="74" width="4" height="4" fill="#F0DDB8"/>
<rect x="108" y="74" width="4" height="4" fill="#3A2418"/>
<rect x="92" y="78" width="8" height="4" fill="#3A2418"/>
<rect x="100" y="78" width="8" height="4" fill="#C45C32"/>
<rect x="108" y="78" width="8" height="4" fill="#3A2418"/>
<rect x="88" y="82" width="4" height="4" fill="#3A2418"/>
<rect x="92" y="82" width="4" height="4" fill="#D4683C"/>
<rect x="96" y="82" width="20" height="4" fill="#C45C32"/>
<rect x="116" y="82" width="4" height="4" fill="#3A2418"/>
<rect x="84" y="86" width="4" height="4" fill="#3A2418"/>
<rect x="88" y="86" width="4" height="4" fill="#D4683C"/>
<rect x="92" y="86" width="8" height="4" fill="#C45C32"/>
<rect x="100" y="86" width="8" height="4" fill="#FFF8EE"/>
<rect x="108" y="86" width="8" height="4" fill="#F6EFE4"/>
<rect x="116" y="86" width="8" height="4" fill="#3A2418"/>
<rect x="84" y="90" width="4" height="4" fill="#3A2418"/>
<rect x="88" y="90" width="4" height="4" fill="#D4683C"/>
<rect x="92" y="90" width="4" height="4" fill="#C45C32"/>
<rect x="96" y="90" width="4" height="4" fill="#E09080"/>
<rect x="100" y="90" width="4" height="4" fill="#8B3A22"/>
<rect x="104" y="90" width="12" height="4" fill="#F6EFE4"/>
<rect x="116" y="90" width="8" height="4" fill="#3A2418"/>
<rect x="80" y="94" width="8" height="4" fill="#3A2418"/>
<rect x="88" y="94" width="20" height="4" fill="#F3D2B0"/>
<rect x="108" y="94" width="4" height="4" fill="#5A241C"/>
<rect x="112" y="94" width="8" height="4" fill="#3A2418"/>
<rect x="80" y="98" width="4" height="4" fill="#3A2418"/>
<rect x="84" y="98" width="24" height="4" fill="#F3D2B0"/>
<rect x="108" y="98" width="8" height="4" fill="#3A2418"/>
<rect x="84" y="102" width="4" height="4" fill="#3A2418"/>
<rect x="88" y="102" width="4" height="4" fill="#F3D2B0"/>
<rect x="92" y="102" width="8" height="4" fill="#4A1C16"/>
<rect x="100" y="102" width="4" height="4" fill="#F3D2B0"/>
<rect x="104" y="102" width="8" height="4" fill="#3A2418"/>
<rect x="40" y="106" width="12" height="4" fill="#E8A070"/>
<rect x="72" y="106" width="4" height="4" fill="#3A2418"/>
<rect x="76" y="106" width="20" height="4" fill="#C45C32"/>
<rect x="96" y="106" width="4" height="4" fill="#3A2418"/>
<rect x="32" y="110" width="8" height="4" fill="#E8A070"/>
<rect x="40" y="110" width="4" height="4" fill="#A85A40"/>
<rect x="44" y="110" width="4" height="4" fill="#E8A070"/>
<rect x="48" y="110" width="4" height="4" fill="#A85A40"/>
<rect x="52" y="110" width="4" height="4" fill="#E8A070"/>
<rect x="68" y="110" width="4" height="4" fill="#3A2418"/>
<rect x="72" y="110" width="24" height="4" fill="#C45C32"/>
<rect x="96" y="110" width="4" height="4" fill="#3A2418"/>
<rect x="8" y="114" width="16" height="4" fill="#8B3A22"/>
<rect x="28" y="114" width="8" height="4" fill="#E8A070"/>
<rect x="36" y="114" width="20" height="4" fill="#A85A40"/>
<rect x="56" y="114" width="4" height="4" fill="#E8A070"/>
<rect x="64" y="114" width="4" height="4" fill="#3A2418"/>
<rect x="68" y="114" width="8" height="4" fill="#C45C32"/>
<rect x="76" y="114" width="16" height="4" fill="#F3D2B0"/>
<rect x="92" y="114" width="4" height="4" fill="#C45C32"/>
<rect x="96" y="114" width="4" height="4" fill="#3A2418"/>
<rect x="4" y="118" width="28" height="4" fill="#8B3A22"/>
<rect x="32" y="118" width="4" height="4" fill="#E8A070"/>
<rect x="36" y="118" width="20" height="4" fill="#A85A40"/>
<rect x="56" y="118" width="4" height="4" fill="#E8A070"/>
<rect x="60" y="118" width="4" height="4" fill="#3A2418"/>
<rect x="64" y="118" width="32" height="4" fill="#C45C32"/>
<rect x="96" y="118" width="4" height="4" fill="#3A2418"/>
<rect x="8" y="122" width="20" height="4" fill="#8B3A22"/>
<rect x="36" y="122" width="8" height="4" fill="#E8A070"/>
<rect x="44" y="122" width="4" height="4" fill="#A85A40"/>
<rect x="48" y="122" width="4" height="4" fill="#E8A070"/>
<rect x="64" y="122" width="4" height="4" fill="#3A2418"/>
<rect x="68" y="122" width="28" height="4" fill="#C45C32"/>
<rect x="96" y="122" width="4" height="4" fill="#3A2418"/>
<rect x="12" y="126" width="12" height="4" fill="#8B3A22"/>
<rect x="64" y="126" width="8" height="4" fill="#3A2418"/>
<rect x="72" y="126" width="8" height="4" fill="#C45C32"/>
<rect x="80" y="126" width="4" height="4" fill="#3A2418"/>
<rect x="84" y="126" width="8" height="4" fill="#C45C32"/>
<rect x="92" y="126" width="4" height="4" fill="#3A2418"/>
<rect x="68" y="130" width="4" height="4" fill="#3A2418"/>
<rect x="72" y="130" width="4" height="4" fill="#C45C32"/>
<rect x="76" y="130" width="4" height="4" fill="#3A2418"/>
<rect x="88" y="130" width="4" height="4" fill="#3A2418"/>
<rect x="92" y="130" width="4" height="4" fill="#8B3A22"/>
<rect x="96" y="130" width="4" height="4" fill="#3A2418"/>
<rect x="68" y="134" width="4" height="4" fill="#3A2418"/>
<rect x="72" y="134" width="4" height="4" fill="#F0DDB8"/>
<rect x="76" y="134" width="4" height="4" fill="#3A2418"/>
<rect x="88" y="134" width="4" height="4" fill="#3A2418"/>
<rect x="92" y="134" width="4" height="4" fill="#F0DDB8"/>
<rect x="96" y="134" width="4" height="4" fill="#3A2418"/>
<rect x="90" y="92" width="28" height="4" fill="#3A2418"/>
<rect x="86" y="96" width="4" height="4" fill="#3A2418"/>
<rect x="90" y="96" width="8" height="4" fill="#F6EFE4"/>
<rect x="98" y="96" width="4" height="4" fill="#3A2418"/>
<rect x="102" y="96" width="8" height="4" fill="#F6EFE4"/>
<rect x="110" y="96" width="8" height="4" fill="#3A2418"/>
<rect x="86" y="100" width="4" height="4" fill="#3A2418"/>
<rect x="90" y="100" width="16" height="4" fill="#F6EFE4"/>
<rect x="106" y="100" width="8" height="4" fill="#3A2418"/>
<rect x="114" y="100" width="4" height="4" fill="#F6EFE4"/>
<rect x="86" y="104" width="4" height="4" fill="#3A2418"/>
<rect x="90" y="104" width="24" height="4" fill="#F6EFE4"/>
<rect x="114" y="104" width="4" height="4" fill="#3A2418"/>
<rect x="90" y="108" width="28" height="4" fill="#3A2418"/>
  </g>
  <text x="260" y="200" text-anchor="middle" font-family="Georgia, 'Times New Roman', serif" font-size="12" fill="#6B4A32">letters travel at the speed of a polite dragon</text>

</svg>
