<svg xmlns="http://www.w3.org/2000/svg" width="920" height="300" viewBox="0 0 920 300" role="img" aria-labelledby="title desc" shape-rendering="crispEdges">
  <title id="title">Enamel sticker sheet</title>
  <desc id="desc">A kraft sheet of enamel-style technology pins on warm paper.</desc>
  <defs>
    <linearGradient id="duskSky" x1="0" y1="0" x2="0" y2="1">
      <stop offset="0" stop-color="#E7C4A2"/>
      <stop offset=".42" stop-color="#F0D3B0"/>
      <stop offset="1" stop-color="#C9B48A"/>
    </linearGradient>
    <linearGradient id="paperSky" x1="0" y1="0" x2="0" y2="1">
      <stop offset="0" stop-color="#F6EFE4"/>
      <stop offset="1" stop-color="#E4D3B4"/>
    </linearGradient>
    <linearGradient id="hillA" x1="0" y1="0" x2="0" y2="1">
      <stop offset="0" stop-color="#8AA078"/>
      <stop offset="1" stop-color="#5F734C"/>
    </linearGradient>
    <linearGradient id="hillB" x1="0" y1="0" x2="0" y2="1">
      <stop offset="0" stop-color="#6F8F5E"/>
      <stop offset="1" stop-color="#4F6B45"/>
    </linearGradient>
    <linearGradient id="wood" x1="0" y1="0" x2="0" y2="1">
      <stop offset="0" stop-color="#6B4A32"/>
      <stop offset="1" stop-color="#4A3224"/>
    </linearGradient>
    <radialGradient id="lamp" cx="50%" cy="40%" r="50%">
      <stop offset="0" stop-color="#FFF3A0" stop-opacity=".9"/>
      <stop offset=".45" stop-color="#E8A070" stop-opacity=".28"/>
      <stop offset="1" stop-color="#E07A3D" stop-opacity="0"/>
    </radialGradient>
    <radialGradient id="hearth" cx="50%" cy="60%" r="50%">
      <stop offset="0" stop-color="#FFF3A0" stop-opacity=".7"/>
      <stop offset="1" stop-color="#C45C32" stop-opacity="0"/>
    </radialGradient>
    <filter id="softPaper" x="-2%" y="-2%" width="104%" height="108%">
      <feDropShadow dx="0" dy="3" stdDeviation="4" flood-color="#3A2418" flood-opacity=".18"/>
    </filter>
    
  </defs>
  <rect width="920" height="300" fill="#E8C49A"/>
  <rect x="20" y="16" width="880" height="268" fill="#EDE3D0" filter="url(#softPaper)"/>
  <text x="460" y="48" text-anchor="middle" font-family="Georgia, 'Times New Roman', serif" font-size="18" fill="#3A2418">enamel pins from the workbench</text>
  <g>
  <animateTransform attributeName="transform" type="translate" values="0 0; 0 -3; 0 0" dur="3.2s" repeatCount="indefinite"/>
  <circle cx="110" cy="108" r="38" fill="#C45C32"/>
  <circle cx="110" cy="108" r="32" fill="#F6EFE4"/>
  <circle cx="110" cy="108" r="28" fill="#C45C32" opacity=".16"/>
  <rect x="94" y="100" width="8" height="4" fill="#2A1810"/>
<rect x="110" y="100" width="4" height="4" fill="#2A1810"/>
<rect x="118" y="100" width="4" height="4" fill="#2A1810"/>
<rect x="94" y="104" width="4" height="4" fill="#2A1810"/>
<rect x="102" y="104" width="4" height="4" fill="#2A1810"/>
<rect x="110" y="104" width="4" height="4" fill="#2A1810"/>
<rect x="118" y="104" width="4" height="4" fill="#2A1810"/>
<rect x="94" y="108" width="8" height="4" fill="#2A1810"/>
<rect x="114" y="108" width="4" height="4" fill="#2A1810"/>
<rect x="94" y="112" width="4" height="4" fill="#2A1810"/>
<rect x="114" y="112" width="4" height="4" fill="#2A1810"/>
<rect x="94" y="116" width="4" height="4" fill="#2A1810"/>
<rect x="114" y="116" width="4" height="4" fill="#2A1810"/>
</g><g>
  <animateTransform attributeName="transform" type="translate" values="0 0; 0 -3; 0 0" dur="3.31s" repeatCount="indefinite"/>
  <circle cx="240" cy="98" r="38" fill="#6F8F5E"/>
  <circle cx="240" cy="98" r="32" fill="#F6EFE4"/>
  <circle cx="240" cy="98" r="28" fill="#6F8F5E" opacity=".16"/>
  <rect x="224" y="90" width="12" height="4" fill="#2A1810"/>
<rect x="244" y="90" width="8" height="4" fill="#2A1810"/>
<rect x="228" y="94" width="4" height="4" fill="#2A1810"/>
<rect x="240" y="94" width="4" height="4" fill="#2A1810"/>
<rect x="228" y="98" width="4" height="4" fill="#2A1810"/>
<rect x="244" y="98" width="4" height="4" fill="#2A1810"/>
<rect x="228" y="102" width="4" height="4" fill="#2A1810"/>
<rect x="248" y="102" width="4" height="4" fill="#2A1810"/>
<rect x="228" y="106" width="4" height="4" fill="#2A1810"/>
<rect x="240" y="106" width="8" height="4" fill="#2A1810"/>
</g><g>
  <animateTransform attributeName="transform" type="translate" values="0 0; 0 -3; 0 0" dur="3.4200000000000004s" repeatCount="indefinite"/>
  <circle cx="370" cy="114" r="38" fill="#8B3A22"/>
  <circle cx="370" cy="114" r="32" fill="#F6EFE4"/>
  <circle cx="370" cy="114" r="28" fill="#8B3A22" opacity=".16"/>
  <rect x="350" y="106" width="8" height="4" fill="#2A1810"/>
<rect x="362" y="106" width="8" height="4" fill="#2A1810"/>
<rect x="378" y="106" width="8" height="4" fill="#2A1810"/>
<rect x="346" y="110" width="4" height="4" fill="#2A1810"/>
<rect x="370" y="110" width="4" height="4" fill="#2A1810"/>
<rect x="386" y="110" width="4" height="4" fill="#2A1810"/>
<rect x="346" y="114" width="4" height="4" fill="#2A1810"/>
<rect x="366" y="114" width="4" height="4" fill="#2A1810"/>
<rect x="382" y="114" width="4" height="4" fill="#2A1810"/>
<rect x="346" y="118" width="4" height="4" fill="#2A1810"/>
<rect x="350" y="122" width="8" height="4" fill="#2A1810"/>
<rect x="366" y="122" width="4" height="4" fill="#2A1810"/>
<rect x="382" y="122" width="4" height="4" fill="#2A1810"/>
</g><g>
  <animateTransform attributeName="transform" type="translate" values="0 0; 0 -3; 0 0" dur="3.5300000000000002s" repeatCount="indefinite"/>
  <circle cx="500" cy="96" r="38" fill="#6B4A32"/>
  <circle cx="500" cy="96" r="32" fill="#F6EFE4"/>
  <circle cx="500" cy="96" r="28" fill="#6B4A32" opacity=".16"/>
  <rect x="488" y="88" width="8" height="4" fill="#2A1810"/>
<rect x="504" y="88" width="4" height="4" fill="#2A1810"/>
<rect x="484" y="92" width="4" height="4" fill="#2A1810"/>
<rect x="500" y="92" width="4" height="4" fill="#2A1810"/>
<rect x="508" y="92" width="4" height="4" fill="#2A1810"/>
<rect x="484" y="96" width="4" height="4" fill="#2A1810"/>
<rect x="492" y="96" width="4" height="4" fill="#2A1810"/>
<rect x="500" y="96" width="4" height="4" fill="#2A1810"/>
<rect x="508" y="96" width="4" height="4" fill="#2A1810"/>
<rect x="484" y="100" width="4" height="4" fill="#2A1810"/>
<rect x="492" y="100" width="4" height="4" fill="#2A1810"/>
<rect x="500" y="100" width="4" height="4" fill="#2A1810"/>
<rect x="508" y="100" width="4" height="4" fill="#2A1810"/>
<rect x="488" y="104" width="8" height="4" fill="#2A1810"/>
<rect x="504" y="104" width="4" height="4" fill="#2A1810"/>
</g><g>
  <animateTransform attributeName="transform" type="translate" values="0 0; 0 -3; 0 0" dur="3.64s" repeatCount="indefinite"/>
  <circle cx="630" cy="108" r="38" fill="#C45C32"/>
  <circle cx="630" cy="108" r="32" fill="#F6EFE4"/>
  <circle cx="630" cy="108" r="28" fill="#C45C32" opacity=".16"/>
  <rect x="610" y="100" width="8" height="4" fill="#2A1810"/>
<rect x="626" y="100" width="4" height="4" fill="#2A1810"/>
<rect x="638" y="100" width="4" height="4" fill="#2A1810"/>
<rect x="606" y="104" width="4" height="4" fill="#2A1810"/>
<rect x="622" y="104" width="4" height="4" fill="#2A1810"/>
<rect x="630" y="104" width="4" height="4" fill="#2A1810"/>
<rect x="638" y="104" width="4" height="4" fill="#2A1810"/>
<rect x="610" y="108" width="4" height="4" fill="#2A1810"/>
<rect x="622" y="108" width="4" height="4" fill="#2A1810"/>
<rect x="630" y="108" width="4" height="4" fill="#2A1810"/>
<rect x="638" y="108" width="4" height="4" fill="#2A1810"/>
<rect x="614" y="112" width="4" height="4" fill="#2A1810"/>
<rect x="626" y="112" width="8" height="4" fill="#2A1810"/>
<rect x="638" y="112" width="4" height="4" fill="#2A1810"/>
<rect x="606" y="116" width="8" height="4" fill="#2A1810"/>
<rect x="630" y="116" width="4" height="4" fill="#2A1810"/>
<rect x="638" y="116" width="12" height="4" fill="#2A1810"/>
</g><g>
  <animateTransform attributeName="transform" type="translate" values="0 0; 0 -3; 0 0" dur="3.75s" repeatCount="indefinite"/>
  <circle cx="760" cy="102" r="38" fill="#6F8F5E"/>
  <circle cx="760" cy="102" r="32" fill="#F6EFE4"/>
  <circle cx="760" cy="102" r="28" fill="#6F8F5E" opacity=".16"/>
  <rect x="720" y="94" width="8" height="4" fill="#2A1810"/>
<rect x="736" y="94" width="12" height="4" fill="#2A1810"/>
<rect x="756" y="94" width="4" height="4" fill="#2A1810"/>
<rect x="772" y="94" width="8" height="4" fill="#2A1810"/>
<rect x="784" y="94" width="12" height="4" fill="#2A1810"/>
<rect x="720" y="98" width="4" height="4" fill="#2A1810"/>
<rect x="728" y="98" width="4" height="4" fill="#2A1810"/>
<rect x="736" y="98" width="4" height="4" fill="#2A1810"/>
<rect x="752" y="98" width="4" height="4" fill="#2A1810"/>
<rect x="760" y="98" width="4" height="4" fill="#2A1810"/>
<rect x="768" y="98" width="4" height="4" fill="#2A1810"/>
<rect x="788" y="98" width="4" height="4" fill="#2A1810"/>
<rect x="720" y="102" width="8" height="4" fill="#2A1810"/>
<rect x="736" y="102" width="8" height="4" fill="#2A1810"/>
<rect x="752" y="102" width="12" height="4" fill="#2A1810"/>
<rect x="768" y="102" width="4" height="4" fill="#2A1810"/>
<rect x="788" y="102" width="4" height="4" fill="#2A1810"/>
<rect x="720" y="106" width="4" height="4" fill="#2A1810"/>
<rect x="728" y="106" width="4" height="4" fill="#2A1810"/>
<rect x="736" y="106" width="4" height="4" fill="#2A1810"/>
<rect x="752" y="106" width="4" height="4" fill="#2A1810"/>
<rect x="760" y="106" width="4" height="4" fill="#2A1810"/>
<rect x="768" y="106" width="4" height="4" fill="#2A1810"/>
<rect x="788" y="106" width="4" height="4" fill="#2A1810"/>
<rect x="720" y="110" width="4" height="4" fill="#2A1810"/>
<rect x="728" y="110" width="4" height="4" fill="#2A1810"/>
<rect x="736" y="110" width="12" height="4" fill="#2A1810"/>
<rect x="752" y="110" width="4" height="4" fill="#2A1810"/>
<rect x="760" y="110" width="4" height="4" fill="#2A1810"/>
<rect x="772" y="110" width="8" height="4" fill="#2A1810"/>
<rect x="788" y="110" width="4" height="4" fill="#2A1810"/>
</g><g>
  <animateTransform attributeName="transform" type="translate" values="0 0; 0 -3; 0 0" dur="3.8600000000000003s" repeatCount="indefinite"/>
  <circle cx="160" cy="198" r="38" fill="#8B6E58"/>
  <circle cx="160" cy="198" r="32" fill="#F6EFE4"/>
  <circle cx="160" cy="198" r="28" fill="#8B6E58" opacity=".16"/>
  <rect x="128" y="190" width="4" height="4" fill="#2A1810"/>
<rect x="136" y="190" width="4" height="4" fill="#2A1810"/>
<rect x="148" y="190" width="4" height="4" fill="#2A1810"/>
<rect x="160" y="190" width="8" height="4" fill="#2A1810"/>
<rect x="176" y="190" width="12" height="4" fill="#2A1810"/>
<rect x="128" y="194" width="8" height="4" fill="#2A1810"/>
<rect x="144" y="194" width="4" height="4" fill="#2A1810"/>
<rect x="152" y="194" width="4" height="4" fill="#2A1810"/>
<rect x="160" y="194" width="4" height="4" fill="#2A1810"/>
<rect x="168" y="194" width="4" height="4" fill="#2A1810"/>
<rect x="176" y="194" width="4" height="4" fill="#2A1810"/>
<rect x="128" y="198" width="4" height="4" fill="#2A1810"/>
<rect x="136" y="198" width="4" height="4" fill="#2A1810"/>
<rect x="144" y="198" width="4" height="4" fill="#2A1810"/>
<rect x="152" y="198" width="4" height="4" fill="#2A1810"/>
<rect x="160" y="198" width="4" height="4" fill="#2A1810"/>
<rect x="168" y="198" width="4" height="4" fill="#2A1810"/>
<rect x="176" y="198" width="8" height="4" fill="#2A1810"/>
<rect x="128" y="202" width="4" height="4" fill="#2A1810"/>
<rect x="136" y="202" width="4" height="4" fill="#2A1810"/>
<rect x="144" y="202" width="4" height="4" fill="#2A1810"/>
<rect x="152" y="202" width="4" height="4" fill="#2A1810"/>
<rect x="160" y="202" width="4" height="4" fill="#2A1810"/>
<rect x="168" y="202" width="4" height="4" fill="#2A1810"/>
<rect x="176" y="202" width="4" height="4" fill="#2A1810"/>
<rect x="128" y="206" width="4" height="4" fill="#2A1810"/>
<rect x="136" y="206" width="4" height="4" fill="#2A1810"/>
<rect x="148" y="206" width="4" height="4" fill="#2A1810"/>
<rect x="160" y="206" width="8" height="4" fill="#2A1810"/>
<rect x="176" y="206" width="12" height="4" fill="#2A1810"/>
</g><g>
  <animateTransform attributeName="transform" type="translate" values="0 0; 0 -3; 0 0" dur="3.97s" repeatCount="indefinite"/>
  <circle cx="300" cy="208" r="38" fill="#4F6B45"/>
  <circle cx="300" cy="208" r="32" fill="#F6EFE4"/>
  <circle cx="300" cy="208" r="28" fill="#4F6B45" opacity=".16"/>
  <rect x="284" y="200" width="8" height="4" fill="#2A1810"/>
<rect x="304" y="200" width="8" height="4" fill="#2A1810"/>
<rect x="284" y="204" width="4" height="4" fill="#2A1810"/>
<rect x="292" y="204" width="4" height="4" fill="#2A1810"/>
<rect x="300" y="204" width="4" height="4" fill="#2A1810"/>
<rect x="284" y="208" width="8" height="4" fill="#2A1810"/>
<rect x="300" y="208" width="4" height="4" fill="#2A1810"/>
<rect x="308" y="208" width="4" height="4" fill="#2A1810"/>
<rect x="284" y="212" width="4" height="4" fill="#2A1810"/>
<rect x="300" y="212" width="4" height="4" fill="#2A1810"/>
<rect x="308" y="212" width="4" height="4" fill="#2A1810"/>
<rect x="284" y="216" width="4" height="4" fill="#2A1810"/>
<rect x="304" y="216" width="8" height="4" fill="#2A1810"/>
</g><g>
  <animateTransform attributeName="transform" type="translate" values="0 0; 0 -3; 0 0" dur="4.08s" repeatCount="indefinite"/>
  <circle cx="440" cy="194" r="38" fill="#C45C32"/>
  <circle cx="440" cy="194" r="32" fill="#F6EFE4"/>
  <circle cx="440" cy="194" r="28" fill="#C45C32" opacity=".16"/>
  <rect x="416" y="186" width="4" height="4" fill="#2A1810"/>
<rect x="424" y="186" width="4" height="4" fill="#2A1810"/>
<rect x="436" y="186" width="4" height="4" fill="#2A1810"/>
<rect x="452" y="186" width="8" height="4" fill="#2A1810"/>
<rect x="416" y="190" width="4" height="4" fill="#2A1810"/>
<rect x="424" y="190" width="4" height="4" fill="#2A1810"/>
<rect x="432" y="190" width="4" height="4" fill="#2A1810"/>
<rect x="440" y="190" width="4" height="4" fill="#2A1810"/>
<rect x="448" y="190" width="4" height="4" fill="#2A1810"/>
<rect x="416" y="194" width="8" height="4" fill="#2A1810"/>
<rect x="436" y="194" width="4" height="4" fill="#2A1810"/>
<rect x="452" y="194" width="4" height="4" fill="#2A1810"/>
<rect x="416" y="198" width="4" height="4" fill="#2A1810"/>
<rect x="424" y="198" width="4" height="4" fill="#2A1810"/>
<rect x="432" y="198" width="4" height="4" fill="#2A1810"/>
<rect x="440" y="198" width="4" height="4" fill="#2A1810"/>
<rect x="456" y="198" width="4" height="4" fill="#2A1810"/>
<rect x="416" y="202" width="4" height="4" fill="#2A1810"/>
<rect x="424" y="202" width="4" height="4" fill="#2A1810"/>
<rect x="436" y="202" width="4" height="4" fill="#2A1810"/>
<rect x="448" y="202" width="8" height="4" fill="#2A1810"/>
</g><g>
  <animateTransform attributeName="transform" type="translate" values="0 0; 0 -3; 0 0" dur="4.19s" repeatCount="indefinite"/>
  <circle cx="580" cy="204" r="38" fill="#6B4A32"/>
  <circle cx="580" cy="204" r="32" fill="#F6EFE4"/>
  <circle cx="580" cy="204" r="28" fill="#6B4A32" opacity=".16"/>
  <rect x="560" y="196" width="4" height="4" fill="#2A1810"/>
<rect x="572" y="196" width="4" height="4" fill="#2A1810"/>
<rect x="580" y="196" width="4" height="4" fill="#2A1810"/>
<rect x="592" y="196" width="8" height="4" fill="#2A1810"/>
<rect x="556" y="200" width="4" height="4" fill="#2A1810"/>
<rect x="564" y="200" width="4" height="4" fill="#2A1810"/>
<rect x="572" y="200" width="4" height="4" fill="#2A1810"/>
<rect x="580" y="200" width="4" height="4" fill="#2A1810"/>
<rect x="588" y="200" width="4" height="4" fill="#2A1810"/>
<rect x="556" y="204" width="12" height="4" fill="#2A1810"/>
<rect x="572" y="204" width="4" height="4" fill="#2A1810"/>
<rect x="580" y="204" width="4" height="4" fill="#2A1810"/>
<rect x="592" y="204" width="4" height="4" fill="#2A1810"/>
<rect x="556" y="208" width="4" height="4" fill="#2A1810"/>
<rect x="564" y="208" width="4" height="4" fill="#2A1810"/>
<rect x="572" y="208" width="12" height="4" fill="#2A1810"/>
<rect x="596" y="208" width="4" height="4" fill="#2A1810"/>
<rect x="556" y="212" width="4" height="4" fill="#2A1810"/>
<rect x="564" y="212" width="4" height="4" fill="#2A1810"/>
<rect x="572" y="212" width="4" height="4" fill="#2A1810"/>
<rect x="580" y="212" width="4" height="4" fill="#2A1810"/>
<rect x="588" y="212" width="8" height="4" fill="#2A1810"/>
</g><g>
  <animateTransform attributeName="transform" type="translate" values="0 0; 0 -3; 0 0" dur="4.300000000000001s" repeatCount="indefinite"/>
  <circle cx="720" cy="198" r="38" fill="#C4897A"/>
  <circle cx="720" cy="198" r="32" fill="#F6EFE4"/>
  <circle cx="720" cy="198" r="28" fill="#C4897A" opacity=".16"/>
  <rect x="696" y="190" width="4" height="4" fill="#2A1810"/>
<rect x="712" y="190" width="4" height="4" fill="#2A1810"/>
<rect x="728" y="190" width="4" height="4" fill="#2A1810"/>
<rect x="736" y="190" width="4" height="4" fill="#2A1810"/>
<rect x="696" y="194" width="4" height="4" fill="#2A1810"/>
<rect x="712" y="194" width="4" height="4" fill="#2A1810"/>
<rect x="728" y="194" width="12" height="4" fill="#2A1810"/>
<rect x="696" y="198" width="4" height="4" fill="#2A1810"/>
<rect x="712" y="198" width="4" height="4" fill="#2A1810"/>
<rect x="728" y="198" width="4" height="4" fill="#2A1810"/>
<rect x="736" y="198" width="4" height="4" fill="#2A1810"/>
<rect x="696" y="202" width="4" height="4" fill="#2A1810"/>
<rect x="712" y="202" width="4" height="4" fill="#2A1810"/>
<rect x="728" y="202" width="4" height="4" fill="#2A1810"/>
<rect x="736" y="202" width="4" height="4" fill="#2A1810"/>
<rect x="696" y="206" width="12" height="4" fill="#2A1810"/>
<rect x="712" y="206" width="12" height="4" fill="#2A1810"/>
<rect x="728" y="206" width="4" height="4" fill="#2A1810"/>
<rect x="736" y="206" width="4" height="4" fill="#2A1810"/>
</g><g>
  <animateTransform attributeName="transform" type="translate" values="0 0; 0 -3; 0 0" dur="4.41s" repeatCount="indefinite"/>
  <circle cx="840" cy="188" r="38" fill="#4F6B45"/>
  <circle cx="840" cy="188" r="32" fill="#F6EFE4"/>
  <circle cx="840" cy="188" r="28" fill="#4F6B45" opacity=".16"/>
  <rect x="820" y="180" width="8" height="4" fill="#2A1810"/>
<rect x="832" y="180" width="12" height="4" fill="#2A1810"/>
<rect x="848" y="180" width="12" height="4" fill="#2A1810"/>
<rect x="816" y="184" width="4" height="4" fill="#2A1810"/>
<rect x="836" y="184" width="4" height="4" fill="#2A1810"/>
<rect x="852" y="184" width="4" height="4" fill="#2A1810"/>
<rect x="816" y="188" width="4" height="4" fill="#2A1810"/>
<rect x="824" y="188" width="4" height="4" fill="#2A1810"/>
<rect x="836" y="188" width="4" height="4" fill="#2A1810"/>
<rect x="852" y="188" width="4" height="4" fill="#2A1810"/>
<rect x="816" y="192" width="4" height="4" fill="#2A1810"/>
<rect x="824" y="192" width="4" height="4" fill="#2A1810"/>
<rect x="836" y="192" width="4" height="4" fill="#2A1810"/>
<rect x="852" y="192" width="4" height="4" fill="#2A1810"/>
<rect x="820" y="196" width="8" height="4" fill="#2A1810"/>
<rect x="832" y="196" width="12" height="4" fill="#2A1810"/>
<rect x="852" y="196" width="4" height="4" fill="#2A1810"/>
</g>

</svg>
