<svg xmlns="http://www.w3.org/2000/svg" width="640" height="360" viewBox="0 0 640 360" role="img" aria-labelledby="title desc" shape-rendering="crispEdges">
  <title id="title">Calling card from the forge</title>
  <desc id="desc">A slate calling card with an ember seal and a sitting dragon.</desc>
  <defs>
    <linearGradient id="duskSky" x1="0" y1="0" x2="0" y2="1">
      <stop offset="0" stop-color="#0F1013"/>
      <stop offset=".42" stop-color="#1A1C22"/>
      <stop offset="1" stop-color="#20272A"/>
    </linearGradient>
    <linearGradient id="paperSky" x1="0" y1="0" x2="0" y2="1">
      <stop offset="0" stop-color="#1E2026"/>
      <stop offset="1" stop-color="#141519"/>
    </linearGradient>
    <linearGradient id="hillA" x1="0" y1="0" x2="0" y2="1">
      <stop offset="0" stop-color="#232B2E"/>
      <stop offset="1" stop-color="#191F22"/>
    </linearGradient>
    <linearGradient id="hillB" x1="0" y1="0" x2="0" y2="1">
      <stop offset="0" stop-color="#26332F"/>
      <stop offset="1" stop-color="#1A2421"/>
    </linearGradient>
    <linearGradient id="wood" x1="0" y1="0" x2="0" y2="1">
      <stop offset="0" stop-color="#2A2D35"/>
      <stop offset="1" stop-color="#1A1C22"/>
    </linearGradient>
    <linearGradient id="brass" x1="0" y1="0" x2="1" y2="0">
      <stop offset="0" stop-color="#8A6E1F"/>
      <stop offset=".55" stop-color="#C9A227"/>
      <stop offset="1" stop-color="#E0B94A"/>
    </linearGradient>
    <radialGradient id="lamp" cx="50%" cy="40%" r="50%">
      <stop offset="0" stop-color="#F2C14E" stop-opacity=".85"/>
      <stop offset=".45" stop-color="#E4572E" stop-opacity=".22"/>
      <stop offset="1" stop-color="#E4572E" stop-opacity="0"/>
    </radialGradient>
    <radialGradient id="hearth" cx="50%" cy="60%" r="50%">
      <stop offset="0" stop-color="#FFE3A3" stop-opacity=".6"/>
      <stop offset=".5" stop-color="#E4572E" stop-opacity=".22"/>
      <stop offset="1" stop-color="#E4572E" stop-opacity="0"/>
    </radialGradient>
    <filter id="softPaper" x="-4%" y="-4%" width="108%" height="112%">
      <feDropShadow dx="0" dy="2" stdDeviation="3" flood-color="#000000" flood-opacity=".5"/>
    </filter>
    
  </defs>
  <rect width="640" height="360" fill="#0F1013"/>
  <rect x="16" y="16" width="608" height="328" fill="#1E2026"/>
  <rect x="16" y="16" width="608" height="328" fill="none" stroke="#8A6E1F" stroke-width="1" opacity=".7"/>
  <rect x="16" y="16" width="608" height="4" fill="#C9A227"/>
  <path d="M330 40 V320" stroke="#3A3E48" stroke-width="1" stroke-dasharray="3 7"/>
  <text x="174" y="70" text-anchor="middle" font-family="Georgia, 'Times New Roman', serif" font-size="18" fill="#E9E6DF" letter-spacing="6">FROM THE FORGE</text>
  <path d="M64 86 H284" stroke="#C9A227" stroke-width="1" opacity=".7"/>
  <text x="44" y="122" font-family="Georgia, 'Times New Roman', serif" font-size="13" fill="#C6C2B8">
    <tspan x="44" dy="0">Sharp tools, one warm light, and one</tspan>
    <tspan x="44" dy="24">creature allowed to scorch the drafts.</tspan>
    <tspan x="44" dy="30">Pakistan. Still shipping.</tspan>
  </text>
<g>
  <animateTransform attributeName="transform" type="translate" values="0 0; 0 -1.3333333333333333; 0 0" dur="3s" repeatCount="indefinite"/>
<rect x="104" y="244" width="4" height="4" fill="#DCD6C8"/>
<rect x="148" y="244" width="4" height="4" fill="#DCD6C8"/>
<rect x="100" y="248" width="8" height="4" fill="#DCD6C8"/>
<rect x="148" y="248" width="8" height="4" fill="#DCD6C8"/>
<rect x="96" y="252" width="4" height="4" fill="#9C9484"/>
<rect x="100" y="252" width="8" height="4" fill="#DCD6C8"/>
<rect x="108" y="252" width="40" height="4" fill="#14161A"/>
<rect x="148" y="252" width="8" height="4" fill="#DCD6C8"/>
<rect x="156" y="252" width="4" height="4" fill="#9C9484"/>
<rect x="100" y="256" width="8" height="4" fill="#14161A"/>
<rect x="108" y="256" width="40" height="4" fill="#C0431F"/>
<rect x="148" y="256" width="8" height="4" fill="#14161A"/>
<rect x="96" y="260" width="4" height="4" fill="#14161A"/>
<rect x="100" y="260" width="56" height="4" fill="#C0431F"/>
<rect x="156" y="260" width="4" height="4" fill="#14161A"/>
<rect x="96" y="264" width="4" height="4" fill="#14161A"/>
<rect x="100" y="264" width="4" height="4" fill="#C0431F"/>
<rect x="104" y="264" width="8" height="4" fill="#111214"/>
<rect x="112" y="264" width="4" height="4" fill="#F7F5F0"/>
<rect x="116" y="264" width="24" height="4" fill="#C0431F"/>
<rect x="140" y="264" width="8" height="4" fill="#111214"/>
<rect x="148" y="264" width="4" height="4" fill="#F7F5F0"/>
<rect x="152" y="264" width="4" height="4" fill="#C0431F"/>
<rect x="156" y="264" width="4" height="4" fill="#14161A"/>
<rect x="96" y="268" width="4" height="4" fill="#14161A"/>
<rect x="100" y="268" width="4" height="4" fill="#C0431F"/>
<rect x="104" y="268" width="12" height="4" fill="#111214"/>
<rect x="116" y="268" width="24" height="4" fill="#C0431F"/>
<rect x="140" y="268" width="12" height="4" fill="#111214"/>
<rect x="152" y="268" width="4" height="4" fill="#C0431F"/>
<rect x="156" y="268" width="4" height="4" fill="#14161A"/>
<rect x="96" y="272" width="4" height="4" fill="#14161A"/>
<rect x="100" y="272" width="4" height="4" fill="#C0431F"/>
<rect x="104" y="272" width="12" height="4" fill="#111214"/>
<rect x="116" y="272" width="24" height="4" fill="#C0431F"/>
<rect x="140" y="272" width="12" height="4" fill="#111214"/>
<rect x="152" y="272" width="4" height="4" fill="#C0431F"/>
<rect x="156" y="272" width="4" height="4" fill="#14161A"/>
<rect x="96" y="276" width="4" height="4" fill="#14161A"/>
<rect x="100" y="276" width="8" height="4" fill="#A8391B"/>
<rect x="108" y="276" width="36" height="4" fill="#C0431F"/>
<rect x="144" y="276" width="8" height="4" fill="#A8391B"/>
<rect x="152" y="276" width="4" height="4" fill="#C0431F"/>
<rect x="156" y="276" width="4" height="4" fill="#14161A"/>
<rect x="96" y="280" width="4" height="4" fill="#14161A"/>
<rect x="100" y="280" width="20" height="4" fill="#C0431F"/>
<rect x="120" y="280" width="16" height="4" fill="#E4572E"/>
<rect x="136" y="280" width="20" height="4" fill="#C0431F"/>
<rect x="156" y="280" width="4" height="4" fill="#14161A"/>
<rect x="96" y="284" width="4" height="4" fill="#14161A"/>
<rect x="100" y="284" width="20" height="4" fill="#C0431F"/>
<rect x="120" y="284" width="4" height="4" fill="#6E2311"/>
<rect x="124" y="284" width="8" height="4" fill="#E4572E"/>
<rect x="132" y="284" width="4" height="4" fill="#6E2311"/>
<rect x="136" y="284" width="20" height="4" fill="#C0431F"/>
<rect x="156" y="284" width="4" height="4" fill="#14161A"/>
<rect x="100" y="288" width="4" height="4" fill="#14161A"/>
<rect x="104" y="288" width="20" height="4" fill="#C0431F"/>
<rect x="124" y="288" width="8" height="4" fill="#2A0E08"/>
<rect x="132" y="288" width="20" height="4" fill="#C0431F"/>
<rect x="152" y="288" width="4" height="4" fill="#14161A"/>
<rect x="104" y="292" width="48" height="4" fill="#14161A"/>
<rect x="108" y="296" width="4" height="4" fill="#14161A"/>
<rect x="112" y="296" width="4" height="4" fill="#C0431F"/>
<rect x="116" y="296" width="24" height="4" fill="#E0B457"/>
<rect x="140" y="296" width="4" height="4" fill="#C0431F"/>
<rect x="144" y="296" width="4" height="4" fill="#14161A"/>
<rect x="92" y="300" width="4" height="4" fill="#14161A"/>
<rect x="96" y="300" width="12" height="4" fill="#D06A34"/>
<rect x="108" y="300" width="4" height="4" fill="#C0431F"/>
<rect x="112" y="300" width="32" height="4" fill="#E0B457"/>
<rect x="144" y="300" width="4" height="4" fill="#C0431F"/>
<rect x="148" y="300" width="12" height="4" fill="#D06A34"/>
<rect x="160" y="300" width="4" height="4" fill="#14161A"/>
<rect x="84" y="304" width="4" height="4" fill="#14161A"/>
<rect x="88" y="304" width="20" height="4" fill="#D06A34"/>
<rect x="108" y="304" width="4" height="4" fill="#C0431F"/>
<rect x="112" y="304" width="32" height="4" fill="#C9A227"/>
<rect x="144" y="304" width="4" height="4" fill="#C0431F"/>
<rect x="148" y="304" width="20" height="4" fill="#D06A34"/>
<rect x="168" y="304" width="4" height="4" fill="#14161A"/>
<rect x="80" y="308" width="4" height="4" fill="#14161A"/>
<rect x="84" y="308" width="4" height="4" fill="#D06A34"/>
<rect x="88" y="308" width="4" height="4" fill="#8E3218"/>
<rect x="92" y="308" width="16" height="4" fill="#D06A34"/>
<rect x="108" y="308" width="4" height="4" fill="#C0431F"/>
<rect x="112" y="308" width="32" height="4" fill="#E0B457"/>
<rect x="144" y="308" width="4" height="4" fill="#C0431F"/>
<rect x="148" y="308" width="16" height="4" fill="#D06A34"/>
<rect x="164" y="308" width="4" height="4" fill="#8E3218"/>
<rect x="168" y="308" width="4" height="4" fill="#D06A34"/>
<rect x="172" y="308" width="4" height="4" fill="#14161A"/>
<rect x="80" y="312" width="8" height="4" fill="#14161A"/>
<rect x="88" y="312" width="20" height="4" fill="#D06A34"/>
<rect x="108" y="312" width="4" height="4" fill="#C0431F"/>
<rect x="112" y="312" width="32" height="4" fill="#C9A227"/>
<rect x="144" y="312" width="4" height="4" fill="#C0431F"/>
<rect x="148" y="312" width="20" height="4" fill="#D06A34"/>
<rect x="168" y="312" width="8" height="4" fill="#14161A"/>
<rect x="88" y="316" width="8" height="4" fill="#14161A"/>
<rect x="96" y="316" width="12" height="4" fill="#D06A34"/>
<rect x="108" y="316" width="4" height="4" fill="#C0431F"/>
<rect x="112" y="316" width="32" height="4" fill="#E0B457"/>
<rect x="144" y="316" width="4" height="4" fill="#C0431F"/>
<rect x="148" y="316" width="12" height="4" fill="#D06A34"/>
<rect x="160" y="316" width="8" height="4" fill="#14161A"/>
<rect x="104" y="320" width="4" height="4" fill="#14161A"/>
<rect x="108" y="320" width="4" height="4" fill="#C0431F"/>
<rect x="112" y="320" width="32" height="4" fill="#C9A227"/>
<rect x="144" y="320" width="4" height="4" fill="#C0431F"/>
<rect x="148" y="320" width="8" height="4" fill="#14161A"/>
<rect x="156" y="320" width="4" height="4" fill="#E4572E"/>
<rect x="160" y="320" width="4" height="4" fill="#14161A"/>
<rect x="104" y="324" width="4" height="4" fill="#14161A"/>
<rect x="108" y="324" width="4" height="4" fill="#C0431F"/>
<rect x="112" y="324" width="32" height="4" fill="#E0B457"/>
<rect x="144" y="324" width="4" height="4" fill="#C0431F"/>
<rect x="148" y="324" width="8" height="4" fill="#14161A"/>
<rect x="156" y="324" width="8" height="4" fill="#E4572E"/>
<rect x="164" y="324" width="4" height="4" fill="#14161A"/>
<rect x="104" y="328" width="4" height="4" fill="#14161A"/>
<rect x="108" y="328" width="12" height="4" fill="#C0431F"/>
<rect x="120" y="328" width="16" height="4" fill="#14161A"/>
<rect x="136" y="328" width="12" height="4" fill="#C0431F"/>
<rect x="148" y="328" width="16" height="4" fill="#14161A"/>
<rect x="100" y="332" width="4" height="4" fill="#14161A"/>
<rect x="104" y="332" width="20" height="4" fill="#E0B457"/>
<rect x="124" y="332" width="8" height="4" fill="#14161A"/>
<rect x="132" y="332" width="20" height="4" fill="#E0B457"/>
<rect x="152" y="332" width="4" height="4" fill="#14161A"/>
<rect x="100" y="336" width="56" height="4" fill="#14161A"/>
<g opacity="0">
<rect x="146" y="236" width="3" height="3" fill="#FFE3A3"/>
<rect x="143" y="239" width="3" height="3" fill="#FFE3A3"/>
<rect x="146" y="239" width="3" height="3" fill="#F2A03C"/>
<rect x="149" y="239" width="3" height="3" fill="#FFE3A3"/>
<rect x="140" y="242" width="3" height="3" fill="#FFE3A3"/>
<rect x="143" y="242" width="3" height="3" fill="#F2A03C"/>
<rect x="146" y="242" width="3" height="3" fill="#E4572E"/>
<rect x="149" y="242" width="3" height="3" fill="#F2A03C"/>
<rect x="152" y="242" width="3" height="3" fill="#FFE3A3"/>
<rect x="143" y="245" width="3" height="3" fill="#FFE3A3"/>
<rect x="146" y="245" width="3" height="3" fill="#F2A03C"/>
<rect x="149" y="245" width="3" height="3" fill="#FFE3A3"/>
<rect x="146" y="248" width="3" height="3" fill="#FFE3A3"/>
<animate attributeName="opacity" values="0;1;0" dur="3.2s" begin="0s" repeatCount="indefinite"/>
</g>
</g>
<rect x="408" y="52" width="40" height="8" fill="#7E2A12"/>
<rect x="400" y="60" width="16" height="8" fill="#7E2A12"/>
<rect x="416" y="60" width="24" height="8" fill="#C0431F"/>
<rect x="440" y="60" width="16" height="8" fill="#7E2A12"/>
<rect x="400" y="68" width="8" height="8" fill="#7E2A12"/>
<rect x="408" y="68" width="48" height="8" fill="#C0431F"/>
<rect x="456" y="68" width="8" height="8" fill="#7E2A12"/>
<rect x="400" y="76" width="8" height="8" fill="#7E2A12"/>
<rect x="408" y="76" width="40" height="8" fill="#C0431F"/>
<rect x="448" y="76" width="8" height="8" fill="#7E2A12"/>
<rect x="400" y="84" width="16" height="8" fill="#7E2A12"/>
<rect x="416" y="84" width="24" height="8" fill="#C0431F"/>
<rect x="440" y="84" width="16" height="8" fill="#7E2A12"/>
<rect x="408" y="92" width="40" height="8" fill="#7E2A12"/>
  <text x="428" y="84" text-anchor="middle" font-family="Georgia, 'Times New Roman', serif" font-size="20" fill="#F7F5F0">M</text>
  <rect x="380" y="160" width="210" height="5" fill="#3A3E48"/>
  <rect x="380" y="184" width="210" height="5" fill="#3A3E48"/>
  <rect x="380" y="208" width="160" height="5" fill="#3A3E48"/>
  <text x="486" y="252" text-anchor="middle" font-family="Georgia, 'Times New Roman', serif" font-size="11" fill="#C9A227" letter-spacing="4">MUXBY / THE FORGE</text>
  <text x="486" y="308" text-anchor="middle" font-family="Georgia, 'Times New Roman', serif" font-size="10" fill="#E4572E" letter-spacing="2">STAMP OF A FINISHED THOUGHT</text>

</svg>
