<svg xmlns="http://www.w3.org/2000/svg" width="920" height="300" viewBox="0 0 920 300" role="img" aria-labelledby="title desc" shape-rendering="crispEdges">
  <title id="title">Struck medallion sheet</title>
  <desc id="desc">A graphite sheet of struck technology medallions ringed in brass, patina, and ember.</desc>
  <defs>
    <linearGradient id="duskSky" x1="0" y1="0" x2="0" y2="1">
      <stop offset="0" stop-color="#0F1013"/>
      <stop offset=".42" stop-color="#1A1C22"/>
      <stop offset="1" stop-color="#20272A"/>
    </linearGradient>
    <linearGradient id="paperSky" x1="0" y1="0" x2="0" y2="1">
      <stop offset="0" stop-color="#1E2026"/>
      <stop offset="1" stop-color="#141519"/>
    </linearGradient>
    <linearGradient id="hillA" x1="0" y1="0" x2="0" y2="1">
      <stop offset="0" stop-color="#232B2E"/>
      <stop offset="1" stop-color="#191F22"/>
    </linearGradient>
    <linearGradient id="hillB" x1="0" y1="0" x2="0" y2="1">
      <stop offset="0" stop-color="#26332F"/>
      <stop offset="1" stop-color="#1A2421"/>
    </linearGradient>
    <linearGradient id="wood" x1="0" y1="0" x2="0" y2="1">
      <stop offset="0" stop-color="#2A2D35"/>
      <stop offset="1" stop-color="#1A1C22"/>
    </linearGradient>
    <linearGradient id="brass" x1="0" y1="0" x2="1" y2="0">
      <stop offset="0" stop-color="#8A6E1F"/>
      <stop offset=".55" stop-color="#C9A227"/>
      <stop offset="1" stop-color="#E0B94A"/>
    </linearGradient>
    <radialGradient id="lamp" cx="50%" cy="40%" r="50%">
      <stop offset="0" stop-color="#F2C14E" stop-opacity=".85"/>
      <stop offset=".45" stop-color="#E4572E" stop-opacity=".22"/>
      <stop offset="1" stop-color="#E4572E" stop-opacity="0"/>
    </radialGradient>
    <radialGradient id="hearth" cx="50%" cy="60%" r="50%">
      <stop offset="0" stop-color="#FFE3A3" stop-opacity=".6"/>
      <stop offset=".5" stop-color="#E4572E" stop-opacity=".22"/>
      <stop offset="1" stop-color="#E4572E" stop-opacity="0"/>
    </radialGradient>
    <filter id="softPaper" x="-4%" y="-4%" width="108%" height="112%">
      <feDropShadow dx="0" dy="2" stdDeviation="3" flood-color="#000000" flood-opacity=".5"/>
    </filter>
    
  </defs>
  <rect width="920" height="300" fill="#0F1013"/>
  <rect x="18" y="14" width="884" height="272" fill="#17181C"/>
  <rect x="18" y="14" width="884" height="272" fill="none" stroke="#8A6E1F" stroke-width="1" opacity=".7"/>
  <path d="M323.1 62.2Q321.4 62.2 320.5 61.5Q319.5 60.8 319.5 59.8Q319.5 58.6 320.7 58.6Q320.8 60.3 321.4 61.1Q322 62 323.2 62Q324.3 62 325 61.4Q325.6 60.7 325.6 59.5Q325.6 58.7 325.4 58.2Q325.1 57.8 324.5 57.4Q323.8 57 322.8 56.5Q322.3 56.3 321.8 56Q321.2 55.7 320.7 55.3Q320.3 54.9 320 54.3Q319.7 53.7 319.7 52.8Q319.7 51.3 320.7 50.5Q321.7 49.7 323.3 49.7Q324.3 49.7 325 50Q325.8 50.2 326.2 50.7Q326.6 51.1 326.6 51.6Q326.6 52.1 326.2 52.4Q325.9 52.7 325.3 52.7Q325.3 51.3 324.8 50.6Q324.3 49.9 323.3 49.9Q322.3 49.9 321.7 50.5Q321.1 51.1 321.1 52.2Q321.1 53 321.4 53.6Q321.7 54.1 322.4 54.4Q323 54.8 323.9 55.2Q324.8 55.6 325.5 56Q326.2 56.5 326.6 57.1Q327.1 57.8 327.1 58.8Q327.1 60.4 326 61.3Q325 62.2 323.1 62.2ZM335.4 62V61.8H335.7Q337 61.8 337 60.6V50H335.7Q334.4 50 333.9 50.5Q333.3 51 333.3 52.3L333.2 52.8H333.1L333.2 49.9H342.7L342.8 52.8H342.6L342.6 52.3Q342.5 51 342 50.5Q341.5 50 340.2 50H338.8V60.6Q338.8 61.8 340.2 61.8H340.4V62ZM348.9 62V61.8H349.1Q350.5 61.8 350.5 60.6V51.2Q350.5 50 349.1 50H348.9V49.9H353.5Q355.7 49.9 356.7 50.7Q357.8 51.5 357.8 53Q357.8 54 357.4 54.7Q357 55.3 356.4 55.7Q355.8 56 355.1 56.2L357.5 59.9Q358.2 61 358.6 61.4Q359 61.8 359.4 61.8H359.5V62H359.2Q358.5 62 357.9 61.9Q357.4 61.9 357.1 61.7Q356.7 61.6 356.5 61.3Q356.2 61 355.9 60.5L353.3 56.3H352.2V60.6Q352.2 61.8 353.6 61.8H353.8V62ZM353.4 56.2Q354.8 56.2 355.4 55.5Q356 54.8 356 53.2Q356 51.5 355.4 50.8Q354.8 50 353.4 50H352.2V56.2ZM370.5 62.2Q368.5 62.2 367.3 61.3Q366.2 60.4 366.2 58.3V51.2Q366.2 50 364.8 50H364.6V49.9H369.5V50H369.3Q367.9 50 367.9 51.2V58.4Q367.9 59.8 368.3 60.6Q368.6 61.3 369.3 61.6Q369.9 61.9 370.7 61.9Q372.5 61.9 373.5 61Q374.5 60.1 374.5 58.5V51.2Q374.5 50 373.1 50H372.8V49.9H376.2V50H376Q374.6 50 374.6 51.3V58.5Q374.6 60.2 373.6 61.2Q372.5 62.2 370.5 62.2ZM387.8 62.2Q386.1 62.2 384.9 61.4Q383.7 60.6 383.2 59.2Q382.6 57.8 382.6 56Q382.6 54.1 383.2 52.7Q383.8 51.3 385 50.5Q386.2 49.7 388 49.7Q389.7 49.7 390.6 50.3Q391.5 50.8 391.5 51.6Q391.5 52.2 391 52.5Q390.6 52.8 390 52.8Q390 51.2 389.5 50.5Q389 49.9 387.8 49.9Q386 49.9 385.2 51.4Q384.5 52.9 384.5 55.9Q384.5 58.9 385.3 60.5Q386.1 62 388 62Q389.2 62 389.9 61.4Q390.6 60.8 391 59.5Q391.4 59.7 391.4 60.2Q391.4 60.6 391 61.1Q390.6 61.5 389.8 61.8Q389 62.2 387.8 62.2ZM397.8 62V61.8H398Q399.4 61.8 399.4 60.6V51.2Q399.4 50 398 50H397.8V49.9H402.7V50H402.5Q401.1 50 401.1 51.3V57L405.5 52.1Q406.3 51.1 406.3 50.6Q406.3 50 404.7 50V49.9H408.5V50Q407.9 50 407.4 50.4Q406.9 50.7 406.1 51.7L403.4 54.6L407.2 59.9Q408 61 408.4 61.4Q408.8 61.8 409.2 61.8H409.2V62H409.1Q408.2 62 407.7 61.9Q407.1 61.9 406.7 61.7Q406.4 61.5 406.1 61.2Q405.8 60.9 405.5 60.5L402.3 55.9L401.1 57.2V60.6Q401.1 61.8 402.5 61.8H402.7V62ZM423.1 62V61.8H423.6Q424.1 61.8 424.4 61.5Q424.7 61.3 425 60.5L428.7 49.9H429.6L433.8 60.9Q434 61.4 434.2 61.6Q434.5 61.8 434.8 61.8H435.1V62H430.4V61.8H430.8Q431.4 61.8 431.7 61.7Q432 61.5 432 61.1Q432 61 432 60.8Q431.9 60.6 431.8 60.4L430.8 57.6H426.2L425.3 60.3Q425.1 60.7 425.1 61Q425.1 61.5 425.5 61.6Q425.9 61.8 426.8 61.8H427.2V62ZM426.2 57.4H430.7L429.5 54.1Q428.8 52.4 428.4 51.1Q428.3 51.5 428.2 51.9Q428 52.3 427.9 52.8Q427.7 53.2 427.5 53.8ZM441.9 62V61.8H442.1Q443.5 61.8 443.5 60.6V50H442.1Q440.8 50 440.3 50.5Q439.8 51 439.7 52.3L439.6 52.8H439.5L439.6 49.9H449.1L449.2 52.8H449L449 52.3Q448.9 51 448.4 50.5Q447.9 50 446.6 50H445.2V60.6Q445.2 61.8 446.6 61.8H446.8V62ZM466.3 62V61.8H466.5Q467.9 61.8 467.9 60.6V50H466.5Q465.2 50 464.7 50.5Q464.2 51 464.1 52.3L464.1 52.8H463.9L464 49.9H473.6L473.7 52.8H473.5L473.5 52.3Q473.4 51 472.9 50.5Q472.4 50 471.1 50H469.6V60.6Q469.6 61.8 471 61.8H471.2V62ZM479.8 62V61.8H480Q481.4 61.8 481.4 60.6V51.2Q481.4 50 480 50H479.8V49.9H484.7V50H484.5Q483.1 50 483.1 51.3V55.6H488.6V51.3Q488.6 50 487.2 50H487V49.9H491.9V50H491.7Q490.3 50 490.3 51.2V60.6Q490.3 61.8 491.7 61.8H491.9V62H487V61.8H487.2Q488.6 61.8 488.6 60.6V55.7H483.1V60.6Q483.1 61.8 484.5 61.8H484.7V62ZM498.3 62V61.8H498.5Q499.9 61.8 499.9 60.6V51.2Q499.9 50 498.5 50H498.3V49.9H506.9L507 52.8H506.8L506.8 52.3Q506.7 51 506.2 50.5Q505.7 50 504.4 50H501.7V55.6H505.9V55.7H501.7V61.8H504.8Q505.7 61.8 506.3 61.6Q506.8 61.4 507.1 60.9Q507.3 60.4 507.4 59.6L507.4 59H507.6L507.4 62ZM522.9 62V61.8H523.2Q524.6 61.8 524.6 60.6V51.2Q524.6 50 523.2 50H522.9V49.9H527.5Q531.9 49.9 531.9 52.8Q531.9 55.3 528.6 55.6V55.6Q530.6 55.7 531.5 56.5Q532.4 57.4 532.4 58.7Q532.4 62 528 62ZM527.4 55.6Q528.9 55.6 529.5 54.9Q530 54.3 530 52.9Q530 51.3 529.4 50.7Q528.8 50 527.4 50H526.3V55.6ZM527.9 61.8Q529.4 61.8 530 61.1Q530.6 60.4 530.6 58.7Q530.6 57.1 530 56.4Q529.4 55.7 528 55.7H526.3V61.8ZM539.2 62V61.8H539.4Q540.8 61.8 540.8 60.6V51.2Q540.8 50 539.4 50H539.2V49.9H547.7L547.8 52.8H547.6L547.6 52.3Q547.5 51 547 50.5Q546.5 50 545.2 50H542.5V55.6H546.8V55.7H542.5V61.8H545.6Q546.6 61.8 547.1 61.6Q547.6 61.4 547.9 60.9Q548.1 60.4 548.2 59.6L548.2 59H548.4L548.3 62ZM554.9 62V61.8H555.3Q556.7 61.8 556.7 60.6V51.2Q556.7 50 555.3 50H554.9V49.9H558.2L564.6 59.6V51.3Q564.6 50 563.2 50H562.8V49.9H566.7V50H566.2Q564.8 50 564.8 51.3V62H564.3L556.9 50.9V60.6Q556.9 61.8 558.3 61.8H558.8V62ZM578.5 62.2Q576.8 62.2 575.6 61.4Q574.4 60.6 573.8 59.2Q573.2 57.8 573.2 56Q573.2 54.1 573.8 52.7Q574.4 51.3 575.7 50.5Q576.9 49.7 578.7 49.7Q580.4 49.7 581.3 50.3Q582.1 50.8 582.1 51.6Q582.1 52.2 581.7 52.5Q581.3 52.8 580.7 52.8Q580.7 51.2 580.1 50.5Q579.6 49.9 578.5 49.9Q576.7 49.9 575.9 51.4Q575.1 52.9 575.1 55.9Q575.1 58.9 576 60.5Q576.8 62 578.7 62Q579.9 62 580.6 61.4Q581.3 60.8 581.6 59.5Q582.1 59.7 582.1 60.2Q582.1 60.6 581.7 61.1Q581.3 61.5 580.5 61.8Q579.7 62.2 578.5 62.2ZM588.5 62V61.8H588.7Q590.1 61.8 590.1 60.6V51.2Q590.1 50 588.7 50H588.5V49.9H593.4V50H593.2Q591.8 50 591.8 51.3V55.6H597.3V51.3Q597.3 50 595.9 50H595.7V49.9H600.6V50H600.4Q599 50 599 51.2V60.6Q599 61.8 600.4 61.8H600.6V62H595.7V61.8H595.9Q597.3 61.8 597.3 60.6V55.7H591.8V60.6Q591.8 61.8 593.2 61.8H593.4V62Z" fill="#E9E6DF" shape-rendering="geometricPrecision" role="img" aria-label="Struck at the bench"/>
  <path d="M340 78 H580" stroke="#C9A227" stroke-width="1" opacity=".7"/>
  <g>
  <animateTransform attributeName="transform" type="translate" values="0 0; 0 -2; 0 0" dur="3.4s" repeatCount="indefinite"/>
  <circle cx="96" cy="140" r="34" fill="#C9A227"/>
  <circle cx="96" cy="140" r="29" fill="#1E2026"/>
  <circle cx="96" cy="140" r="29" fill="none" stroke="#14161A" stroke-width="2"/>
  <path d="M89.2 144.4V135.6H92.2Q93 135.6 93.7 136Q94.3 136.3 94.7 136.9Q95.1 137.5 95.1 138.3Q95.1 139.1 94.7 139.7Q94.3 140.3 93.7 140.7Q93 141 92.2 141H90.7V144.4ZM90.7 139.7H92.2Q92.8 139.7 93.2 139.3Q93.5 138.9 93.5 138.3Q93.5 137.7 93.2 137.3Q92.8 136.9 92.2 136.9H90.7ZM99.3 144.4V141.2L96.8 135.6H98.3L99.7 138.7Q99.9 139 100 139.4Q100.1 139.7 100.1 139.9Q100.2 139.7 100.3 139.4Q100.4 139 100.5 138.7L101.8 135.6H103.4L100.8 141.2V144.4Z" fill="#E9E6DF" shape-rendering="geometricPrecision" role="img" aria-label="PY"/>
</g><g>
  <animateTransform attributeName="transform" type="translate" values="0 0; 0 -2; 0 0" dur="3.53s" repeatCount="indefinite"/>
  <circle cx="242" cy="140" r="34" fill="#3F6B62"/>
  <circle cx="242" cy="140" r="29" fill="#1E2026"/>
  <circle cx="242" cy="140" r="29" fill="none" stroke="#14161A" stroke-width="2"/>
  <path d="M237.2 144.4V137H234.9V135.6H241V137H238.7V144.4ZM246.1 144.5Q245.2 144.5 244.6 144.2Q243.9 143.9 243.5 143.3Q243.2 142.7 243.2 141.9H244.6Q244.6 142.5 245 142.8Q245.4 143.2 246.1 143.2Q246.8 143.2 247.1 142.8Q247.5 142.5 247.5 141.9Q247.5 141.5 247.3 141.2Q247 140.8 246.6 140.7L245.4 140.4Q244.4 140.2 243.9 139.5Q243.3 138.9 243.3 137.9Q243.3 136.8 244.1 136.2Q244.8 135.5 246 135.5Q246.9 135.5 247.5 135.8Q248.1 136.1 248.4 136.6Q248.8 137.2 248.8 137.9H247.3Q247.3 137.4 247 137.1Q246.6 136.8 246 136.8Q245.5 136.8 245.1 137.1Q244.8 137.4 244.8 137.9Q244.8 138.3 245 138.6Q245.3 138.8 245.7 139L246.9 139.3Q247.9 139.5 248.4 140.2Q249 140.9 249 141.9Q249 142.7 248.6 143.3Q248.3 143.9 247.6 144.2Q247 144.5 246.1 144.5Z" fill="#E9E6DF" shape-rendering="geometricPrecision" role="img" aria-label="TS"/>
</g><g>
  <animateTransform attributeName="transform" type="translate" values="0 0; 0 -2; 0 0" dur="3.66s" repeatCount="indefinite"/>
  <circle cx="388" cy="140" r="34" fill="#A33418"/>
  <circle cx="388" cy="140" r="29" fill="#1E2026"/>
  <circle cx="388" cy="140" r="29" fill="none" stroke="#14161A" stroke-width="2"/>
  <path d="M383.6 144.5Q382.2 144.5 381.5 143.8Q380.7 143 380.7 141.8H382.2Q382.2 142.4 382.5 142.8Q382.9 143.2 383.6 143.2Q384.2 143.2 384.6 142.8Q384.9 142.4 384.9 141.8V135.6H386.4V141.8Q386.4 143 385.7 143.8Q384.9 144.5 383.6 144.5ZM392.1 144.5Q391.2 144.5 390.6 144.2Q389.9 143.9 389.5 143.3Q389.2 142.7 389.2 141.9H390.6Q390.6 142.5 391 142.8Q391.4 143.2 392.1 143.2Q392.8 143.2 393.1 142.8Q393.5 142.5 393.5 141.9Q393.5 141.5 393.3 141.2Q393 140.8 392.6 140.7L391.4 140.4Q390.4 140.2 389.9 139.5Q389.3 138.9 389.3 137.9Q389.3 136.8 390.1 136.2Q390.8 135.5 392 135.5Q392.9 135.5 393.5 135.8Q394.1 136.1 394.4 136.6Q394.8 137.2 394.8 137.9H393.3Q393.3 137.4 393 137.1Q392.6 136.8 392 136.8Q391.5 136.8 391.1 137.1Q390.8 137.4 390.8 137.9Q390.8 138.3 391 138.6Q391.3 138.8 391.7 139L392.9 139.3Q393.9 139.5 394.4 140.2Q395 140.9 395 141.9Q395 142.7 394.6 143.3Q394.3 143.9 393.6 144.2Q393 144.5 392.1 144.5Z" fill="#E9E6DF" shape-rendering="geometricPrecision" role="img" aria-label="JS"/>
</g><g>
  <animateTransform attributeName="transform" type="translate" values="0 0; 0 -2; 0 0" dur="3.79s" repeatCount="indefinite"/>
  <circle cx="534" cy="140" r="34" fill="#3A3E48"/>
  <circle cx="534" cy="140" r="29" fill="#1E2026"/>
  <circle cx="534" cy="140" r="29" fill="none" stroke="#14161A" stroke-width="2"/>
  <path d="M525.9 144.5Q525.1 144.5 524.5 144.2Q523.8 143.9 523.5 143.3Q523.2 142.7 523.2 141.9V138.1Q523.2 137.3 523.5 136.7Q523.8 136.1 524.5 135.8Q525.1 135.5 525.9 135.5Q526.8 135.5 527.4 135.8Q528 136.1 528.4 136.7Q528.7 137.3 528.7 138.1H527.2Q527.2 137.5 526.9 137.1Q526.5 136.8 525.9 136.8Q525.3 136.8 525 137.1Q524.7 137.5 524.7 138.1V141.9Q524.7 142.5 525 142.8Q525.3 143.2 525.9 143.2Q526.5 143.2 526.9 142.8Q527.2 142.5 527.2 141.9H528.7Q528.7 142.7 528.4 143.3Q528 143.9 527.4 144.2Q526.8 144.5 525.9 144.5ZM533.3 143.3V141.1H531.1V139.7H533.3V137.6H534.7V139.7H536.9V141.1H534.7V143.3ZM541.4 143.3V141.1H539.3V139.7H541.4V137.6H542.9V139.7H545.1V141.1H542.9V143.3Z" fill="#E9E6DF" shape-rendering="geometricPrecision" role="img" aria-label="C++"/>
</g><g>
  <animateTransform attributeName="transform" type="translate" values="0 0; 0 -2; 0 0" dur="3.92s" repeatCount="indefinite"/>
  <circle cx="680" cy="140" r="34" fill="#C9A227"/>
  <circle cx="680" cy="140" r="29" fill="#1E2026"/>
  <circle cx="680" cy="140" r="29" fill="none" stroke="#14161A" stroke-width="2"/>
  <path d="M676 144.5Q675.1 144.5 674.5 144.2Q673.9 143.9 673.5 143.3Q673.2 142.7 673.2 141.9V138.1Q673.2 137.3 673.5 136.7Q673.9 136.1 674.5 135.8Q675.1 135.5 676 135.5Q676.8 135.5 677.4 135.8Q678.1 136.1 678.4 136.7Q678.8 137.3 678.8 138.1H677.2Q677.2 137.5 676.9 137.1Q676.6 136.8 676 136.8Q675.4 136.8 675 137.1Q674.7 137.5 674.7 138.1V141.9Q674.7 142.5 675 142.9Q675.4 143.2 676 143.2Q676.6 143.2 676.9 142.9Q677.2 142.5 677.2 141.9V140.9H675.8V139.6H678.8V141.9Q678.8 142.7 678.4 143.3Q678.1 143.9 677.4 144.2Q676.8 144.5 676 144.5ZM684.1 144.5Q682.8 144.5 682.1 143.8Q681.3 143.1 681.3 141.8V138.2Q681.3 136.9 682.1 136.2Q682.8 135.5 684.1 135.5Q685.3 135.5 686.1 136.2Q686.8 136.9 686.8 138.2V141.8Q686.8 143.1 686.1 143.8Q685.3 144.5 684.1 144.5ZM684.1 143.2Q684.7 143.2 685 142.8Q685.3 142.5 685.3 141.9V138.1Q685.3 137.5 685 137.1Q684.7 136.8 684.1 136.8Q683.5 136.8 683.2 137.1Q682.8 137.5 682.8 138.1V141.9Q682.8 142.5 683.2 142.8Q683.5 143.2 684.1 143.2Z" fill="#E9E6DF" shape-rendering="geometricPrecision" role="img" aria-label="GO"/>
</g><g>
  <animateTransform attributeName="transform" type="translate" values="0 0; 0 -2; 0 0" dur="4.05s" repeatCount="indefinite"/>
  <circle cx="826" cy="140" r="34" fill="#3F6B62"/>
  <circle cx="826" cy="140" r="29" fill="#1E2026"/>
  <circle cx="826" cy="140" r="29" fill="none" stroke="#14161A" stroke-width="2"/>
  <path d="M817.9 144.5Q817 144.5 816.3 144.2Q815.7 143.9 815.3 143.3Q814.9 142.7 814.9 141.9H816.4Q816.4 142.5 816.8 142.8Q817.2 143.2 817.9 143.2Q818.5 143.2 818.9 142.8Q819.3 142.5 819.3 141.9Q819.3 141.5 819 141.2Q818.8 140.8 818.3 140.7L817.2 140.4Q816.2 140.2 815.7 139.5Q815.1 138.9 815.1 137.9Q815.1 136.8 815.8 136.2Q816.6 135.5 817.8 135.5Q818.6 135.5 819.2 135.8Q819.9 136.1 820.2 136.6Q820.5 137.2 820.5 137.9H819.1Q819.1 137.4 818.7 137.1Q818.4 136.8 817.8 136.8Q817.2 136.8 816.9 137.1Q816.6 137.4 816.6 137.9Q816.6 138.3 816.8 138.6Q817 138.8 817.5 139L818.7 139.3Q819.6 139.5 820.2 140.2Q820.8 140.9 820.8 141.9Q820.8 142.7 820.4 143.3Q820 143.9 819.4 144.2Q818.8 144.5 817.9 144.5ZM827.3 146.5 826.1 144.5Q826 144.5 826 144.5Q825.2 144.5 824.5 144.2Q823.9 143.9 823.6 143.3Q823.2 142.7 823.2 141.9V138.1Q823.2 137.3 823.6 136.7Q823.9 136.1 824.5 135.8Q825.2 135.5 826 135.5Q826.8 135.5 827.5 135.8Q828.1 136.1 828.4 136.7Q828.8 137.3 828.8 138.1V141.9Q828.8 142.7 828.4 143.3Q828.1 143.9 827.5 144.2L828.9 146.5ZM826 143.2Q826.6 143.2 827 142.8Q827.3 142.5 827.3 141.9V138.1Q827.3 137.5 826.9 137.2Q826.6 136.8 826 136.8Q825.4 136.8 825.1 137.2Q824.7 137.5 824.7 138.1V141.9Q824.7 142.5 825 142.8Q825.4 143.2 826 143.2ZM832 144.4V135.6H833.5V143H837.2V144.4Z" fill="#E9E6DF" shape-rendering="geometricPrecision" role="img" aria-label="SQL"/>
</g><g>
  <animateTransform attributeName="transform" type="translate" values="0 0; 0 -2; 0 0" dur="4.18s" repeatCount="indefinite"/>
  <circle cx="96" cy="228" r="34" fill="#A33418"/>
  <circle cx="96" cy="228" r="29" fill="#1E2026"/>
  <circle cx="96" cy="228" r="29" fill="none" stroke="#14161A" stroke-width="2"/>
  <path d="M77 232.4V223.6H79.8Q80.6 223.6 81.3 223.9Q81.9 224.3 82.3 224.8Q82.6 225.4 82.6 226.2Q82.6 227.1 82.2 227.8Q81.8 228.4 81 228.7L82.8 232.4H81.1L79.6 228.9H78.5V232.4ZM78.5 227.6H79.8Q80.4 227.6 80.8 227.2Q81.1 226.9 81.1 226.3Q81.1 225.7 80.8 225.3Q80.4 224.9 79.8 224.9H78.5ZM85.3 232.4V223.6H90.6V224.9H86.8V227.2H90.1V228.5H86.8V231.1H90.6V232.4ZM92.8 232.4 95 223.6H97L99.2 232.4H97.6L97.2 230.3H94.8L94.4 232.4ZM95.1 229H96.9L96.4 226.7Q96.2 226.1 96.1 225.6Q96 225.1 96 224.9Q96 225.1 95.9 225.6Q95.8 226.1 95.6 226.7ZM104.3 232.5Q103.4 232.5 102.8 232.2Q102.2 231.9 101.8 231.3Q101.5 230.7 101.5 229.9V226.1Q101.5 225.3 101.8 224.7Q102.2 224.1 102.8 223.8Q103.4 223.5 104.3 223.5Q105.1 223.5 105.7 223.8Q106.3 224.1 106.7 224.7Q107 225.3 107 226.1H105.5Q105.5 225.5 105.2 225.1Q104.9 224.8 104.3 224.8Q103.6 224.8 103.3 225.1Q103 225.5 103 226.1V229.9Q103 230.5 103.3 230.8Q103.6 231.2 104.3 231.2Q104.9 231.2 105.2 230.8Q105.5 230.5 105.5 229.9H107Q107 230.7 106.7 231.3Q106.3 231.9 105.7 232.2Q105.1 232.5 104.3 232.5ZM111.6 232.4V225H109.3V223.6H115.4V225H113.1V232.4Z" fill="#E9E6DF" shape-rendering="geometricPrecision" role="img" aria-label="REACT"/>
</g><g>
  <animateTransform attributeName="transform" type="translate" values="0 0; 0 -2; 0 0" dur="4.31s" repeatCount="indefinite"/>
  <circle cx="242" cy="228" r="34" fill="#3A3E48"/>
  <circle cx="242" cy="228" r="29" fill="#1E2026"/>
  <circle cx="242" cy="228" r="29" fill="none" stroke="#14161A" stroke-width="2"/>
  <path d="M227 232.4V223.6H228.9L231.3 230.7Q231.3 230.3 231.2 229.8Q231.2 229.3 231.2 228.7Q231.1 228.2 231.1 227.8V223.6H232.5V232.4H230.7L228.2 225.3Q228.3 225.6 228.3 226.1Q228.3 226.6 228.4 227.1Q228.4 227.7 228.4 228.1V232.4ZM237.9 232.5Q236.7 232.5 235.9 231.8Q235.2 231.1 235.2 229.8V226.2Q235.2 224.9 235.9 224.2Q236.7 223.5 237.9 223.5Q239.2 223.5 239.9 224.2Q240.7 224.9 240.7 226.2V229.8Q240.7 231.1 239.9 231.8Q239.2 232.5 237.9 232.5ZM237.9 231.2Q238.5 231.2 238.8 230.8Q239.2 230.5 239.2 229.9V226.1Q239.2 225.5 238.8 225.1Q238.5 224.8 237.9 224.8Q237.3 224.8 237 225.1Q236.7 225.5 236.7 226.1V229.9Q236.7 230.5 237 230.8Q237.3 231.2 237.9 231.2ZM243.4 232.4V223.6H246Q246.9 223.6 247.5 224Q248.2 224.3 248.5 224.9Q248.9 225.5 248.9 226.4V229.6Q248.9 230.5 248.5 231.1Q248.2 231.7 247.5 232Q246.9 232.4 246 232.4ZM244.9 231H246Q246.6 231 247 230.7Q247.4 230.3 247.4 229.6V226.4Q247.4 225.7 247 225.3Q246.6 225 246 225H244.9ZM251.7 232.4V223.6H257V224.9H253.2V227.2H256.5V228.5H253.2V231.1H257V232.4Z" fill="#E9E6DF" shape-rendering="geometricPrecision" role="img" aria-label="NODE"/>
</g><g>
  <animateTransform attributeName="transform" type="translate" values="0 0; 0 -2; 0 0" dur="4.4399999999999995s" repeatCount="indefinite"/>
  <circle cx="388" cy="228" r="34" fill="#C9A227"/>
  <circle cx="388" cy="228" r="29" fill="#1E2026"/>
  <circle cx="388" cy="228" r="29" fill="none" stroke="#14161A" stroke-width="2"/>
  <path d="M381.2 232.4V223.6H384.2Q385 223.6 385.7 224Q386.3 224.3 386.7 224.9Q387.1 225.5 387.1 226.3Q387.1 227.1 386.7 227.7Q386.3 228.3 385.7 228.7Q385 229 384.2 229H382.7V232.4ZM382.7 227.7H384.2Q384.8 227.7 385.2 227.3Q385.5 226.9 385.5 226.3Q385.5 225.7 385.2 225.3Q384.8 224.9 384.2 224.9H382.7ZM392.1 232.5Q391.3 232.5 390.7 232.2Q390 231.9 389.7 231.3Q389.3 230.7 389.3 229.9V226.1Q389.3 225.3 389.7 224.7Q390 224.1 390.7 223.8Q391.3 223.5 392.1 223.5Q393 223.5 393.6 223.8Q394.2 224.1 394.6 224.7Q394.9 225.3 394.9 226.1H393.4Q393.4 225.5 393.1 225.1Q392.7 224.8 392.1 224.8Q391.5 224.8 391.2 225.1Q390.8 225.5 390.8 226.1V229.9Q390.8 230.5 391.2 230.9Q391.5 231.2 392.1 231.2Q392.7 231.2 393.1 230.9Q393.4 230.5 393.4 229.9V228.9H391.9V227.6H394.9V229.9Q394.9 230.7 394.6 231.3Q394.2 231.9 393.6 232.2Q393 232.5 392.1 232.5Z" fill="#E9E6DF" shape-rendering="geometricPrecision" role="img" aria-label="PG"/>
</g><g>
  <animateTransform attributeName="transform" type="translate" values="0 0; 0 -2; 0 0" dur="4.57s" repeatCount="indefinite"/>
  <circle cx="534" cy="228" r="34" fill="#3F6B62"/>
  <circle cx="534" cy="228" r="29" fill="#1E2026"/>
  <circle cx="534" cy="228" r="29" fill="none" stroke="#14161A" stroke-width="2"/>
  <path d="M523.2 232.4V223.6H524.7V227.2H525.7L527.4 223.6H529L527 227.8L529.1 232.4H527.4L525.7 228.5H524.7V232.4ZM534 232.5Q533.1 232.5 532.5 232.2Q531.8 231.8 531.4 231.3Q531 230.7 531 229.9Q531 229.1 531.5 228.5Q532 227.9 532.7 227.7V227.7Q532.1 227.6 531.7 227.1Q531.3 226.6 531.3 225.9Q531.3 225.2 531.6 224.6Q532 224.1 532.6 223.8Q533.2 223.5 534 223.5Q534.8 223.5 535.4 223.8Q536 224.1 536.4 224.6Q536.7 225.2 536.7 225.9Q536.7 226.6 536.3 227.1Q535.9 227.6 535.3 227.7V227.7Q536 227.9 536.5 228.5Q537 229.1 537 229.9Q537 230.7 536.6 231.3Q536.2 231.8 535.5 232.2Q534.9 232.5 534 232.5ZM534 227.2Q534.6 227.2 534.9 226.9Q535.3 226.5 535.3 226Q535.3 225.4 534.9 225.1Q534.6 224.7 534 224.7Q533.4 224.7 533.1 225.1Q532.7 225.4 532.7 226Q532.7 226.5 533.1 226.9Q533.4 227.2 534 227.2ZM534 231.2Q534.7 231.2 535.1 230.8Q535.5 230.5 535.5 229.8Q535.5 229.2 535.1 228.8Q534.7 228.4 534 228.4Q533.3 228.4 532.9 228.8Q532.5 229.2 532.5 229.8Q532.5 230.5 532.9 230.8Q533.3 231.2 534 231.2ZM542.2 232.5Q541.3 232.5 540.6 232.2Q540 231.9 539.6 231.3Q539.2 230.7 539.2 229.9H540.7Q540.7 230.5 541.1 230.8Q541.5 231.2 542.2 231.2Q542.8 231.2 543.2 230.8Q543.6 230.5 543.6 229.9Q543.6 229.5 543.4 229.2Q543.1 228.8 542.7 228.7L541.5 228.4Q540.5 228.2 540 227.5Q539.4 226.9 539.4 225.9Q539.4 224.8 540.2 224.2Q540.9 223.5 542.1 223.5Q542.9 223.5 543.6 223.8Q544.2 224.1 544.5 224.6Q544.8 225.2 544.8 225.9H543.4Q543.4 225.4 543 225.1Q542.7 224.8 542.1 224.8Q541.5 224.8 541.2 225.1Q540.9 225.4 540.9 225.9Q540.9 226.3 541.1 226.6Q541.4 226.8 541.8 227L543 227.3Q544 227.5 544.5 228.2Q545.1 228.9 545.1 229.9Q545.1 230.7 544.7 231.3Q544.4 231.9 543.7 232.2Q543.1 232.5 542.2 232.5Z" fill="#E9E6DF" shape-rendering="geometricPrecision" role="img" aria-label="K8S"/>
</g><g>
  <animateTransform attributeName="transform" type="translate" values="0 0; 0 -2; 0 0" dur="4.7s" repeatCount="indefinite"/>
  <circle cx="680" cy="228" r="34" fill="#A33418"/>
  <circle cx="680" cy="228" r="29" fill="#1E2026"/>
  <circle cx="680" cy="228" r="29" fill="none" stroke="#14161A" stroke-width="2"/>
  <path d="M668.7 232.4 670.9 223.6H672.8L675 232.4H673.5L673 230.3H670.7L670.2 232.4ZM671 229H672.7L672.2 226.7Q672.1 226.1 672 225.6Q671.9 225.1 671.8 224.9Q671.8 225.1 671.7 225.6Q671.6 226.1 671.5 226.7ZM677.5 232.4 676.6 223.6H677.8L678.4 229.7Q678.4 230.1 678.4 230.5Q678.5 231 678.5 231.4Q678.5 231 678.5 230.5Q678.6 230.1 678.6 229.7L679.4 223.6H680.7L681.4 229.7Q681.4 230.1 681.5 230.5Q681.5 231 681.6 231.4Q681.6 231 681.6 230.5Q681.6 230.1 681.7 229.7L682.2 223.6H683.4L682.5 232.4H680.8L680.1 226.2Q680.1 225.9 680.1 225.4Q680 224.9 680 224.6Q680 224.9 680 225.4Q679.9 225.9 679.9 226.2L679.1 232.4ZM688.2 232.5Q687.3 232.5 686.6 232.2Q686 231.9 685.6 231.3Q685.2 230.7 685.2 229.9H686.7Q686.7 230.5 687.1 230.8Q687.5 231.2 688.2 231.2Q688.8 231.2 689.2 230.8Q689.6 230.5 689.6 229.9Q689.6 229.5 689.4 229.2Q689.1 228.8 688.7 228.7L687.5 228.4Q686.5 228.2 686 227.5Q685.4 226.9 685.4 225.9Q685.4 224.8 686.2 224.2Q686.9 223.5 688.1 223.5Q688.9 223.5 689.6 223.8Q690.2 224.1 690.5 224.6Q690.8 225.2 690.8 225.9H689.4Q689.4 225.4 689 225.1Q688.7 224.8 688.1 224.8Q687.5 224.8 687.2 225.1Q686.9 225.4 686.9 225.9Q686.9 226.3 687.1 226.6Q687.4 226.8 687.8 227L689 227.3Q690 227.5 690.5 228.2Q691.1 228.9 691.1 229.9Q691.1 230.7 690.7 231.3Q690.4 231.9 689.7 232.2Q689.1 232.5 688.2 232.5Z" fill="#E9E6DF" shape-rendering="geometricPrecision" role="img" aria-label="AWS"/>
</g><g>
  <animateTransform attributeName="transform" type="translate" values="0 0; 0 -2; 0 0" dur="4.83s" repeatCount="indefinite"/>
  <circle cx="826" cy="228" r="34" fill="#3A3E48"/>
  <circle cx="826" cy="228" r="29" fill="#1E2026"/>
  <circle cx="826" cy="228" r="29" fill="none" stroke="#14161A" stroke-width="2"/>
  <path d="M815.7 232.4V223.6H817.2V231H820.9V232.4ZM823.9 232.4V223.6H825.4V231H829.1V232.4ZM831.2 232.4V223.6H833.2L834.1 227.4L835.1 223.6H837.1V232.4H835.7V228.7Q835.7 227.9 835.8 227.1Q835.8 226.3 835.9 225.6Q835.9 224.8 836 224.2L834.7 228.6H833.5L832.3 224.3Q832.4 225.1 832.5 226.3Q832.6 227.4 832.6 228.7V232.4Z" fill="#E9E6DF" shape-rendering="geometricPrecision" role="img" aria-label="LLM"/>
</g>

</svg>
